<?xml version="1.0" encoding="UTF-8" standalone="no"?>
<!-- Created with Inkscape (http://www.inkscape.org/) -->

<svg
   version="1.1"
   id="svg2"
   width="117.33333"
   height="117.33333"
   viewBox="0 0 117.33333 117.33333"
   sodipodi:docname="BUPT_Logo.eps"
   xmlns:inkscape="http://www.inkscape.org/namespaces/inkscape"
   xmlns:sodipodi="http://sodipodi.sourceforge.net/DTD/sodipodi-0.dtd"
   xmlns="http://www.w3.org/2000/svg"
   xmlns:svg="http://www.w3.org/2000/svg">
  <defs
     id="defs6" />
  <sodipodi:namedview
     id="namedview4"
     pagecolor="#ffffff"
     bordercolor="#000000"
     borderopacity="0.25"
     inkscape:showpageshadow="2"
     inkscape:pageopacity="0.0"
     inkscape:pagecheckerboard="0"
     inkscape:deskcolor="#d1d1d1" />
  <g
     id="g8"
     inkscape:groupmode="layer"
     inkscape:label="ink_ext_XXXXXX"
     transform="matrix(1.3333333,0,0,-1.3333333,0,117.33333)">
    <g
       id="g10"
       transform="scale(0.1)">
      <path
         d="m 102.23,433.98 c 0,0 1.321,-5.39 1.321,-8.781 H 581.09 c 0,0 -50.578,107.262 -56.641,119.41 -2.027,4.731 -2.027,9.45 6.063,4.02 8.117,-5.391 24.289,-16.828 48.59,-68.789 0,0 20.898,9.461 26.289,11.488 4.73,1.992 4.73,4.024 0.66,10.781 -8.75,14.84 -15.5,28.321 -24.961,43.161 -7.418,11.492 -16.828,19.57 -29.641,31.019 -2.039,2.031 -4.73,3.402 8.75,13.512 0,0 6.09,-4.723 15.5,-13.512 6.762,-6.719 12.821,-12.109 20.942,-22.23 8.089,-11.481 18.871,-29.02 30.347,-52.61 0,0 29.653,13.473 35.043,16.832 0,0 1.367,4.059 -1.332,10.117 -3.359,8.122 -10.777,21.602 -16.871,32.383 -11.449,18.91 -17.539,28.321 -53.949,61.41 -5.391,5.387 -1.359,8.079 2.031,12.809 3.36,4.73 7.43,8.75 15.512,1.328 3.359,-3.359 15.508,-11.449 31.68,-31.68 16.878,-21.597 38.476,-62.738 56.679,-111.328 l 50.59,10.821 c 0,0 -12.82,76.879 -70.82,140.98 -5.391,5.391 -44.531,51.91 -112.66,80.93 -34.371,14.148 -77.582,22.929 -124.102,22.929 -29.687,0 -116.68,-3.39 -194.918,-70.82 -2.031,-2.691 -3.402,-4.719 3.359,-6.09 4.719,-1.332 55.969,-12.109 100.5,-58.011 9.461,-9.411 14.848,-14.84 21.571,-27.649 14.84,-27.66 17.539,-38.441 21.597,-56.64 2.032,-8.79 6.051,-49.258 -32.378,-67.469 -7.43,-4.02 -37.11,-21.563 -81.61,-9.449 -24.961,5.429 -47.89,18.238 -70.82,17.539 -23.629,-0.661 -35.738,-4.02 -68.121,-27.661 -4.731,-4.019 -14.18,-12.808 -35.739,-8.75 z m 133.551,-224.601 38.438,39.101 c 0,0 66.09,-62.699 167.929,-62.031 32.383,0 69.493,5.391 102.543,24.25 0,0 -13.48,30.352 -14.851,33.75 0,0 16.879,8.09 19.57,10.121 2.699,1.328 4.731,1.328 7.43,-4.058 2.691,-5.391 10.109,-24.961 15.5,-28.992 0,0 22.93,14.14 46.531,35.75 27.649,26.281 58.707,65.429 73.551,130.191 2.699,11.449 9.418,44.488 6.719,75.508 l 53.281,4.062 c 0,0 1.367,-58.011 -14.141,-114.652 -3.402,-11.481 -11.48,-29.02 -19.57,-45.188 -9.449,-18.91 -18.91,-36.453 -26.992,-46.57 C 685,251.211 645.859,187.109 555.469,153.398 546.02,150 413.828,99.4102 288.359,171.602 c -9.41,5.386 -33.05,18.867 -52.578,37.777 z m 271.129,80.269 10.789,-22.269 23.629,10.781 -10.816,22.27 z m -17.531,35.743 10.781,-22.27 23.629,10.789 -10.82,22.262 z m -18.207,36.41 10.117,-22.231 23.59,11.45 -10.777,21.601 z M 214.18,178.359 l -49.258,-52.621 -8.082,8.09 c -1.328,1.371 -2.039,2.692 -2.699,3.363 -0.661,1.36 -0.661,2.688 0,4.719 0,1.371 0.66,3.399 2.031,5.391 0.668,2.039 2.027,4.07 4.058,6.758 2,2.031 3.36,3.363 5.391,4.73 2.699,2.031 4.731,3.359 6.059,3.359 l 2.699,0.661 c 0,1.371 0,3.402 0.66,4.73 0,1.371 1.371,3.402 2.731,6.09 1.332,2.031 3.359,4.73 5.39,6.723 2,2.738 4.031,4.726 6.719,6.097 2.031,1.321 3.402,2.031 5.391,2.692 1.371,0.66 2.742,0.66 4.07,0.66 1.359,0 2.691,-0.66 3.359,-1.321 0.699,0 2.031,-1.371 3.391,-2.031 z m -25.629,-20.238 15.508,16.84 -4.059,3.398 c -1.328,1.993 -2.699,2.692 -3.359,2.692 0,0.668 -1.371,0.668 -2.032,0.668 -1.328,0 -2.699,-0.668 -4.019,-1.367 -1.371,-0.661 -2.699,-1.993 -4.07,-3.364 -1.36,-1.328 -2.032,-2.687 -3.36,-4.058 -1.359,-1.989 -2.031,-3.36 -2.031,-4.692 -0.66,-1.359 0,-2.687 0,-3.398 0.672,-0.66 1.332,-1.32 2.031,-2.031 z m -6.75,-7.422 -4.731,4.731 c -0.66,0.66 -1.332,1.332 -2.031,1.332 -0.66,0.66 -1.988,0.66 -2.699,0 -1.32,0 -2.692,-0.672 -4.02,-2.032 -0.699,-0.671 -2.031,-2.031 -3.398,-3.359 -1.332,-1.371 -1.992,-2.031 -2.692,-3.359 -0.671,-0.711 -0.671,-2.032 -1.332,-2.703 0,-1.36 0,-2.028 0.661,-2.731 0,-0.668 0.671,-1.328 1.371,-2.699 l 4.691,-4.02 z m -36.41,37.781 6.718,6.051 9.45,-10.781 18.211,15.512 -10.79,12.148 6.758,6.711 14.141,-16.172 -53.938,-47.89 -14.179,15.511 7.418,6.09 10.121,-11.48 15.5,13.48 z m 18.199,45.192 3.359,-4.063 -58,-43.16 -2.699,3.352 z m -35.738,12.808 -42.5004,-26.992 -2.6914,4.063 43.8198,27.66 c 1.372,1.328 3.399,1.988 5.399,3.359 2.031,0.66 4.062,2.032 6.09,2.032 2.031,0.668 3.359,1.328 4.73,1.328 1.992,0 3.352,-0.66 4.68,-1.328 1.371,-0.704 2.031,-1.372 2.742,-2.692 1.328,-2.031 1.328,-4.07 0.66,-6.101 -0.66,-1.329 -1.371,-3.36 -2.691,-5.387 -1.371,-2.031 -3.399,-3.363 -5.391,-5.391 l -4.07,-2.691 -3.359,4.019 c 1.332,0.7 2.699,1.371 3.359,2.032 1.371,0.66 2.031,2.031 2.699,2.699 0.66,0.699 1.371,1.359 1.371,2.691 0.66,1.367 0.66,2.699 0,3.399 -0.711,0.66 -1.371,1.332 -2.039,1.332 -0.66,0.699 -2.031,0.699 -3.39,0 -0.668,0 -2,-0.672 -4.032,-1.332 -1.359,-0.7 -3.359,-1.371 -5.386,-2.7 z m 6.058,35.079 2.031,-4.719 -63.4019,-33.051 -2.6993,4.02 z m -58.6795,-4.059 50.5895,20.898 1.328,-4.019 -66.7574,-28.359 -1.3711,4.058 41.8395,36.402 -48.5582,-20.89 -2.0313,4.719 66.7615,28.32 2.028,-4.719 z m -18.9024,61.371 1.3711,-4.73 c -1.3711,-1.332 -2.6992,-1.993 -4.0703,-2.692 -1.3281,-0.668 -2.6875,-2 -4.0195,-3.359 -0.6992,-1.371 -1.3711,-2.699 -0.6992,-4.731 0,-0.66 0.6992,-2.031 1.3593,-2.699 1.3711,-0.66 2.0313,-1.32 4.0703,-2.031 1.9883,0 4.0196,-0.66 6.711,-0.66 2.6992,0 5.3984,0.66 7.4297,0.66 2.6914,0.711 5.3906,1.371 8.0781,2.031 2.7031,0.668 5.4297,1.371 6.7617,2.039 2.6992,1.321 5.3906,2.031 8.0899,3.352 2.6914,1.371 4.7187,3.398 6.0898,4.73 1.9883,1.367 2.699,2.699 2.699,4.059 0.66,1.332 0.66,2.699 0,3.359 0,0.672 0,2.031 -0.7107,2.699 l -1.3281,4.723 -16.1719,-4.723 1.332,-6.058 -9.4492,-2.692 -3.3594,10.122 35.7383,10.781 2.031,-7.43 c 0.668,-1.359 1.367,-3.351 1.367,-5.391 0,-2.031 0,-4.058 -1.367,-6.089 -0.66,-1.993 -2.031,-4.02 -4.062,-6.051 -1.989,-2.039 -4.7307,-3.36 -7.4182,-4.731 -2.6992,-1.328 -5.3906,-2.699 -8.0899,-4.019 -3.3593,-0.711 -6.0507,-2.039 -9.4492,-2.738 -4.0312,-1.332 -8.0898,-1.993 -12.1133,-2.692 -4.7265,-0.672 -8.1289,-1.332 -10.8203,-1.332 -3.3593,0.66 -6.0586,0.66 -8.0898,1.332 -2.0274,0.699 -3.3594,1.36 -5.3867,2.031 -1.3711,1.36 -2.0313,2.688 -2.6914,4.719 -0.6719,2.699 -0.6719,4.07 0,6.059 1.3203,2.031 2.0312,3.402 3.3593,4.73 1.3594,1.36 2.6914,2.031 4.7188,3.391 2.0312,1.332 3.4023,2 4.7305,2.699 z m -32.3476,70.82 -0.6992,4.719 47.8906,4.07 c 2.0273,0.661 4.0586,0.661 6.0976,0.661 2.6914,0 4.7188,-0.661 7.4219,-0.661 1.9883,-0.671 4.6875,-0.671 6.0469,-2.031 2.0312,-0.668 4.0625,-2.039 5.3906,-4.07 0.6719,-1.328 1.3711,-2.688 2.0313,-4.68 0,-2.039 -0.6602,-3.398 -1.3594,-5.429 -1.332,-1.329 -2.6992,-3.36 -4.6914,-4.032 -1.3711,-1.359 -3.3985,-2.687 -5.4297,-3.398 -1.9883,-0.66 -4.0195,-1.32 -6.0586,-1.32 -2.0313,-0.668 -4.7227,-0.668 -7.4219,-1.372 l -46.5195,-4.027 -0.6992,4.731 45.8984,4.027 c 3.3516,0.699 6.0508,0.699 8.082,1.359 2.0274,0.672 4.0196,1.332 5.3907,2.703 1.3281,0.661 2.0273,2.028 2.0273,3.36 0.6719,0.66 0.6719,2.027 0.6719,3.398 0,1.321 -0.6719,2.692 -1.3711,3.352 -1.3281,0.668 -1.9883,1.328 -3.3594,2.039 -1.332,0.66 -3.3594,0.66 -6.0508,0.66 -2.039,0 -4.7304,0 -8.1289,0 z m 16.8398,25.661 55.3086,-0.704 v -4.726 l -72.8476,0.699 v 4.731 l 53.9882,16.839 -53.289,0.661 v 4.726 l 72.8203,-0.668 v -4.719 z m 57.3399,41.128 -0.6602,-4.718 -72.1914,6.758 0.6719,4.679 z m 3.3598,25.629 -73.5083,1.371 1.3672,4.68 55.3125,-0.66 -51.293,20.23 0.7032,5.391 68.1284,-26.949 z m -29.6411,56.641 9.4102,-2.699 -4.0196,-13.473 22.9295,-6.758 4.02,14.84 9.453,-2.691 -6.051,-19.571 -69.4999,20.942 6.0977,19.531 8.75,-2.699 -4.0586,-14.844 18.8984,-6.058 z m 47.1801,3.398 -2.028,-4.726 L 50.2695,584.41 55,595.859 c 0.6602,1.371 1.3281,2.692 2.6992,3.36 1.3203,1.371 2.6914,2.031 4.0625,2.031 1.9883,0 4.0196,0 6.7188,0 2.0312,-0.66 4.7187,-1.328 8.0781,-2.699 2.7031,-1.321 5.4297,-2.692 6.7617,-4.02 2.0313,-1.371 3.3594,-2.031 4.0586,-3.402 l 2,-2.027 c 0.6992,0 1.3594,0 2.0313,0 0.6992,0 2.0312,0 3.3906,0 0.668,-0.661 2.6992,-0.661 6.0582,-1.993 l 24.961,-8.129 -2.031,-4.019 -24.3007,7.418 c -1.3281,0.672 -3.3594,1.332 -4.6875,1.332 -1.3594,0 -2.6914,0 -3.3906,-0.66 -0.6719,-0.672 -1.3321,-1.332 -1.3321,-2.699 l -2.6992,-5.391 z m -58.6684,23.59 18.1992,-7.418 2.6993,6.09 c 0,1.328 0.6992,2 0,3.36 0,0.671 -0.668,2.031 -2.0274,3.359 -1.332,0.711 -2.7031,2.031 -5.3906,2.699 -0.6719,0.703 -1.9922,0.703 -3.3594,1.371 -1.3711,0 -2.0312,0 -3.3633,0 -1.3671,0 -2.0273,-0.668 -2.6992,-1.371 -0.6992,-0.668 -1.3594,-1.328 -2.0273,-2.699 z m 50.5894,10.782 2.032,4.73 c 1.328,-0.66 2.027,-0.66 3.359,-1.328 0.66,0 2.027,-0.703 2.688,-0.703 1.371,0 2.703,-0.668 3.402,0 0.66,0 1.988,0 2.699,0.703 0.66,0.668 1.32,1.328 1.988,2.027 0.704,0.672 0.704,1.332 0.704,2 0.668,0.699 0.668,2.031 0.668,2.692 0,0.699 -0.668,1.371 -0.668,2.031 -0.704,0.668 -1.372,1.367 -2.032,2.699 -0.66,0.699 -2.031,1.359 -3.359,2.027 -2.031,0.661 -3.402,1.372 -4.063,2.032 -1.367,0.66 -2.699,0.66 -4.058,0.66 -0.668,0 -2,0 -4.031,-1.32 -1.36,-0.711 -3.399,-1.372 -5.387,-2.7 -1.371,-1.371 -3.402,-2.031 -4.723,-2.73 -1.3709,-0.668 -3.3982,-0.668 -5.3982,-0.668 -2.0313,0 -4.0625,0.668 -6.75,1.367 -2.6992,0.66 -5.3906,2.691 -8.7891,4.731 -1.9922,1.32 -4.0312,2.691 -4.6914,3.351 -1.3711,1.328 -2.6914,2.699 -3.3984,4.07 -0.6602,1.329 -0.6602,1.989 -1.3321,3.36 0,1.328 -0.6992,2.687 0,3.359 0,1.36 0,2.031 0.6719,3.391 0.6602,2 2.0274,3.359 3.3594,4.027 2.0273,0.66 4.0586,0.66 5.3906,0.66 2.0274,0 4.0586,0 5.4297,0 1.9883,-0.66 3.3594,-1.328 4.6875,-1.328 l 2.7305,-1.359 -2.0313,-4.031 c -0.6992,0 -1.3672,0.671 -2.0273,0.671 -0.6719,0 -2.0313,0.661 -3.3594,0.661 -0.7109,0 -2.0312,0 -3.4023,0 -0.668,-0.661 -1.3282,-0.661 -2.0274,-1.332 -0.6719,-0.661 -1.332,-1.36 -1.332,-2.032 -0.6602,-1.359 -0.6602,-2.687 -0.6602,-4.058 0.6602,-0.66 0.6602,-1.989 1.3203,-2.7 0.6719,-1.32 2.0313,-2.031 2.6993,-2.691 1.3711,-1.328 2.0312,-2.027 3.4023,-2.027 1.3281,-0.672 2.6875,-1.332 4.0195,-1.332 1.3672,-0.66 2.6993,-0.66 4.0586,-0.66 0.6719,0.66 2.0313,0.66 2.6993,1.32 0.6601,0 2.0312,0.672 4.0195,2.031 1.3707,0.668 3.4027,2.039 4.7307,2.699 1.371,0.66 3.402,1.371 4.73,1.371 1.36,0 3.391,0 5.391,0 2.031,-0.711 3.39,-1.371 4.719,-2.031 1.371,-0.711 3.402,-1.371 4.73,-2.039 3.359,-2.031 5.391,-3.351 7.422,-4.723 1.367,-2.027 2.699,-3.359 4.059,-5.386 0.671,-1.371 1.332,-3.364 1.332,-4.731 0,-1.332 0,-2.691 -0.661,-4.062 -0.671,-1.989 -2.031,-3.36 -2.703,-4.02 -1.359,-0.668 -2.687,-1.371 -4.718,-2.039 -1.372,0 -2.7,0 -4.731,0 -2.027,0 -3.359,0 -5.391,0.668 -1.367,0.703 -3.359,0.703 -4.726,1.371 z m 40.469,29.691 -2.699,-4.02 -61.3711,38.43 2.6992,4.027 z m -43.168,49.258 c -2.691,1.992 -4.73,4.019 -7.422,6.051 2.692,3.359 5.391,6.761 8.09,10.121 2.692,3.359 4.723,6.757 7.422,10.121 2.688,-1.332 5.391,-3.364 7.418,-5.391 -2.027,-2.699 -4.019,-5.391 -6.758,-8.793 8.789,-6.058 16.879,-12.109 24.957,-18.867 8.133,-6.051 16.883,-12.813 25.633,-18.871 -1.332,-1.36 -2,-2.731 -3.359,-4.059 -8.09,6.059 -16.883,12.809 -24.961,18.867 -8.75,6.762 -16.84,12.813 -24.961,18.903 -2,-2.692 -4.031,-5.391 -6.059,-8.082 z m 83.629,1.992 -4.019,-4.02 -24.301,22.93 -37.11,17.539 4.071,4.059 27.648,-12.848 -14.84,26.328 4.02,4.723 20.242,-36.442 z m 105.238,153.789 10.782,3.398 c 1.371,0.661 2.691,0.661 4.058,0.661 1.332,0 2.703,-1.329 4.032,-2.688 2.031,-1.371 2.691,-2.699 4.058,-4.73 0.66,-2.032 2.031,-3.36 2.692,-4.731 0,-2.031 0.671,-3.359 1.371,-4.719 1.328,-3.363 1.988,-6.062 1.988,-8.75 0.711,-2.031 0,-4.73 0,-6.761 -0.66,-2.032 -1.328,-3.36 -1.988,-4.731 -1.371,-1.32 -2.731,-1.988 -4.063,-2.687 l -4.726,-1.332 9.449,-29.692 -4.063,-1.367 z m 14.84,-28.32 4.731,2.031 c 1.332,0.66 1.992,0.66 2.691,1.367 0.668,0.66 1.328,1.992 1.328,2.692 0,1.332 0,2.699 0,3.359 0,1.332 -0.66,3.359 -1.328,4.73 -0.699,2.032 -1.359,4.02 -2.031,5.391 -1.359,1.371 -2.027,2.699 -2.688,2.699 -1.371,0.66 -2.031,0.66 -2.703,0.66 l -6.758,-2.699 z m 36.41,43.871 c 2.692,0.66 5.391,0 8.082,-2.699 3.399,-2.731 6.098,-6.762 8.79,-12.153 2.699,-5.39 4.73,-11.48 6.058,-17.539 1.371,-6.75 2.031,-12.808 2.031,-18.199 0,-6.09 -0.66,-10.82 -2.699,-14.18 -1.359,-3.359 -3.359,-5.39 -6.051,-6.051 -2.699,-0.71 -5.429,0.661 -8.789,3.36 -2.699,2.691 -5.39,6.75 -8.09,12.14 -2.691,5.399 -4.718,10.79 -6.089,16.84 -1.332,6.758 -1.993,12.809 -1.993,18.91 0,6.051 0.661,10.782 2.692,14.141 1.332,3.399 3.359,5.43 6.058,5.43 z m 2.032,-9.461 c -1.371,0 -2.7,-1.36 -4.059,-4.059 -1.332,-2.031 -1.332,-6.051 -1.332,-10.121 0,-4.719 0.66,-9.449 1.332,-13.469 1.359,-4.73 2.688,-9.461 4.059,-12.812 2.031,-4.07 4.058,-6.758 6.05,-8.789 2.04,-2 4.071,-3.36 6.098,-2.699 1.332,0 2.692,1.371 4.024,4.058 1.367,2.699 1.367,6.063 1.367,10.121 0,4.731 0,8.75 -1.367,13.481 -1.332,4.719 -2.692,8.789 -4.692,13.508 -1.359,4.031 -3.39,6.722 -6.09,8.75 -2.031,2.031 -3.359,2.703 -5.39,2.031 z m 69.449,10.781 -0.66,9.457 h 26.332 v -9.457 H 434.73 l 2.032,-63.391 h -5.391 l -1.332,63.391 z m 134.262,-5.391 c 2.031,-0.66 3.359,-0.66 4.73,-1.359 -0.711,-12.109 -1.371,-24.922 -2.031,-37.07 -0.668,-12.153 -2.039,-24.301 -3.399,-37.11 -1.332,0.661 -3.363,1.36 -4.691,1.36 0,3.359 0,6.719 0.66,10.121 0,3.359 0,6.719 0.668,9.418 -2.699,0.699 -4.726,1.359 -7.418,2.031 -2.039,0.66 -4.73,1.359 -6.762,2.027 -2.699,-5.386 -5.386,-11.488 -8.75,-16.878 -1.367,0.71 -2.699,0.71 -4.726,1.371 5.387,10.781 10.777,21.558 16.207,32.379 5.391,11.449 10.781,22.23 15.512,33.71 z m -3.403,-45.191 c 0.711,4.731 0.711,10.121 1.371,14.84 0,5.391 0.661,10.121 0.661,15.512 -2.032,-4.731 -4.02,-9.45 -6.75,-14.18 -2,-4.02 -4.032,-8.75 -6.719,-13.481 2.027,0 4.019,-0.66 6.051,-1.32 2.027,-0.711 3.398,-0.711 5.386,-1.371 z m 36.453,16.172 -20.242,-50.59 -4.719,2.039 26.989,66.789 4.691,-2.027 -4.691,-54.652 20.23,48.601 4.692,-2.031 -27.621,-66.801 -4.059,2.031 z m 8.079,-62.031 33.71,63.398 7.43,-4.058 c 1.36,-0.668 2.692,-2 4.059,-3.36 1.332,-1.332 2.691,-2.699 3.359,-4.73 1.371,-2.032 1.371,-4.02 1.371,-6.719 0,-2.731 0,-5.43 -0.668,-8.121 -0.703,-2.699 -2.031,-5.391 -2.73,-8.09 -1.332,-2.699 -2.699,-6.051 -4.692,-9.449 -2.031,-3.36 -4.058,-6.723 -6.089,-10.121 -2.04,-3.36 -4.731,-6.719 -6.719,-9.41 -2.742,-2.04 -4.731,-4.071 -6.762,-4.731 -1.367,-1.367 -3.398,-1.367 -5.391,-2.027 -1.367,0 -2.699,0 -4.058,0.66 -1.328,0.668 -2.699,1.367 -4.731,2.027 z m 33.71,53.281 -25.621,-47.891 3.403,-2.031 c 1.988,-0.66 4.019,-1.328 5.386,-2.027 1.993,0 4.024,0.699 6.051,1.367 1.371,0.66 3.36,2.031 4.731,4.062 1.371,1.329 3.359,3.36 4.73,6.047 1.32,2.032 3.36,5.391 5.391,8.75 2.027,3.403 3.359,6.762 4.058,8.793 0.661,2.699 1.332,4.731 1.332,6.758 0.661,1.992 0.661,4.02 0,6.051 -0.671,1.371 -0.671,2.699 -1.332,4.07 -0.699,0.66 -1.371,1.988 -2.699,2.692 -0.699,0.668 -1.359,1.328 -2.031,1.328 z m 65.43,-40.473 c 2.039,2.032 4.07,4.731 6.102,7.422 3.359,-2.691 6.047,-5.39 9.41,-8.082 3.398,-2.699 6.758,-5.387 10.117,-8.09 -1.988,-2.726 -4.019,-5.429 -6.059,-7.418 -2.691,1.989 -5.39,4.02 -8.082,6.719 -6.757,-8.75 -13.476,-16.84 -20.238,-24.961 -6.75,-8.75 -13.512,-16.168 -20.23,-24.258 -1.371,1.328 -2.7,2.032 -3.399,3.36 6.758,7.422 13.52,15.511 19.571,23.59 6.757,8.789 13.519,16.878 20.238,24.96 -2.699,2.7 -5.391,4.731 -7.43,6.758 z m 30.36,-54.648 -6.719,-6.719 -10.121,9.418 -16.879,-16.84 11.488,-10.82 -6.758,-6.719 -14.84,14.141 51.25,51.961 14.18,-14.184 -6.101,-6.719 -11.442,10.782 -14.18,-14.18 z m -22.231,-39.102 55.27,46.532 3.402,-4.032 -47.891,-39.797 10.782,-12.82 -7.422,-6.75 z m 66.762,-15.508 -8.09,-5.39 -8.789,11.449 -19.531,-14.18 9.41,-12.808 -8.082,-5.391 -12.149,16.871 60.039,42.5 12.153,-16.871 -7.422,-5.39 -9.461,12.14 -16.828,-11.48 z m 30.347,-31.71 -2.027,4.058 c 0.66,0.66 1.359,1.332 2.027,2.031 0.661,0.661 2.032,1.332 2.692,2.692 0.672,0.668 0.672,2 1.371,3.359 0,1.328 0,2.039 -0.699,3.36 -1.332,2.031 -2.703,2.699 -4.731,3.402 -1.992,0.668 -4.019,0.668 -6.722,0 -2.688,-0.703 -5.387,-1.371 -8.079,-2.692 -2.699,-1.371 -6.101,-2.742 -9.46,-4.73 -4.059,-2.031 -6.75,-4.059 -8.79,-5.391 -2.691,-2.031 -4.679,-3.398 -6.71,-5.429 -1.372,-1.989 -2.7,-4.02 -3.399,-6.059 -0.672,-2.031 0,-4.062 0.699,-5.391 0.66,-1.359 1.989,-2.691 4.02,-3.39 1.371,0 2.699,0 4.07,0 l 6.051,2.73 2.699,-4.058 c -0.672,-0.672 -2,-1.371 -3.359,-2.032 -1.371,-0.671 -2.699,-1.332 -5.391,-2.031 -2.031,-0.668 -4.07,-1.328 -6.762,-1.328 -2.699,0 -4.726,0.66 -6.058,2.027 -2.031,0.661 -3.391,1.993 -4.059,3.364 -0.66,2.027 -1.332,4.058 -1.332,6.758 0.672,1.992 1.332,4.679 3.36,7.421 2.031,2.688 4.73,5.387 8.089,7.418 2.692,2.692 5.391,4.692 8.082,6.051 2.04,1.328 4.731,2.699 7.43,4.731 3.391,2.031 7.418,3.359 10.11,4.73 3.402,1.328 6.761,2.688 10.121,3.359 3.398,0 6.089,0.661 8.129,0 2.691,0 4.679,-0.671 6.71,-2.031 1.372,-0.668 2.7,-2.039 3.399,-4.027 1.332,-2.031 1.332,-4.723 0.672,-6.762 -0.672,-2.031 -2.031,-4.058 -4.071,-6.051 -1.32,-2.031 -3.351,-3.398 -5.39,-4.73 z m 31.012,-18.872 c 1.371,-2.027 0.711,-5.429 -0.66,-8.789 -2.031,-3.359 -5.391,-6.757 -10.121,-10.121 -5.391,-4.019 -10.777,-6.758 -16.867,-9.449 -6.063,-2.699 -11.453,-4.687 -17.543,-5.391 -6.059,-1.328 -10.778,-1.328 -14.809,-0.668 -4.058,1.372 -6.09,2.7 -7.422,5.391 -0.699,2.699 -0.699,5.399 1.332,8.789 2.032,3.36 5.391,6.719 10.121,10.121 4.719,4.02 10.11,6.719 16.207,9.418 6.051,2.692 11.442,4.063 17.543,5.391 6.047,1.359 11.438,1.359 14.797,0 4.063,-0.668 6.762,-2.699 7.422,-4.692 z m -8.75,-4.058 c -0.66,1.359 -2.691,2.691 -5.39,3.359 -2.692,0.699 -6.09,0.699 -10.821,-0.668 -4.019,-0.66 -8.75,-2.031 -13.469,-4.062 -4.07,-1.989 -8.089,-4.02 -11.449,-6.719 -3.402,-2.031 -6.09,-4.73 -7.422,-6.762 -1.371,-2.687 -2.031,-4.718 -1.371,-6.047 0.672,-2.031 2.703,-3.402 5.391,-3.402 2.699,-0.668 6.762,-0.668 10.781,0 4.07,1.371 8.789,2.691 12.86,4.063 4.679,2.027 8.75,4.726 12.101,7.418 4.07,2.031 6.098,4.73 7.43,7.429 1.359,2.031 2.027,4.02 1.359,5.391 z m 20.238,-27 2.032,-6.051 -52.621,-27.66 59.339,4.73 2.032,-5.39 -70.16,-20.938 -1.321,4.731 53.281,15.508 -56.679,-4.692 -1.332,4.024 49.922,26.328 -52.621,-15.551 -2.032,4.73 z m 14.84,-53.281 0.672,-6.047 -55.32,-20.242 59.379,-2.692 0.66,-6.098 -72.18,-10.781 -0.668,4.731 54.649,8.09 -56.02,2.691 -0.66,4.059 52.621,19.57 -54.652,-8.121 -0.668,4.73 z m 7.422,-74.18 0.668,-4.719 -47.887,-2.031 c -2.031,0 -4.07,0 -6.062,0.66 -2.688,0 -4.719,0 -7.418,0.699 -2.031,0.672 -4.063,1.332 -6.09,1.992 -2.031,1.372 -3.359,2.739 -4.73,4.071 -1.332,2.027 -1.332,4.058 -1.332,5.39 -0.661,2.028 0,4.059 1.332,5.387 1.371,1.371 2.699,2.692 4.058,4.063 2.031,1.328 4.071,2.031 6.063,2.699 2.027,0.66 4.058,1.359 6.09,1.359 2.027,0 4.726,0.672 7.418,0.672 l 46.531,1.328 0.66,-4.73 -45.859,-1.328 c -3.364,-0.661 -6.051,-0.661 -8.75,-1.371 -2.032,0 -3.403,-0.661 -4.723,-1.989 -1.367,-0.703 -2.039,-2.031 -2.699,-2.691 -0.66,-1.371 -0.66,-2.738 -0.66,-4.07 0,-1.36 0.66,-2.692 1.32,-3.36 0.672,-0.699 2.039,-1.359 3.359,-2.031 1.371,-0.66 3.403,-1.359 5.43,-1.359 2.699,0 5.391,0 8.09,0 z m -18.238,-24.957 -54.613,3.359 v 4.731 l 72.851,-4.063 -0.699,-5.398 -53.941,-12.813 53.281,-3.359 v -4.719 l -72.852,4.059 v 4.73 z m -58.672,-37.774 0.66,5.391 71.531,-11.449 -0.671,-4.719 z m 42.5,-52.617 1.371,4.731 c 0.66,0 1.988,0 2.688,-0.672 1.332,0 2.703,0 3.363,0.672 1.367,0 2.699,0.66 4.058,1.328 0.668,0.699 1.329,1.359 2,2.73 0.7,1.989 0,4.02 -0.671,5.391 -1.329,1.988 -3.36,3.359 -5.387,4.73 -2.692,1.329 -4.723,2.688 -7.422,4.02 -3.359,0.668 -6.762,2.027 -10.121,2.699 -4.059,1.36 -8.078,2.031 -10.777,2.031 -2.692,0.661 -5.391,0.661 -8.082,0.661 -2.739,0 -4.731,-0.661 -6.758,-2.032 -2.032,-1.332 -3.364,-2.691 -3.364,-4.691 -0.699,-1.359 -0.699,-2.688 0.661,-4.059 0.671,-2.031 2.031,-2.699 2.703,-3.359 l 6.047,-2.031 -0.661,-5.391 c -1.367,0.66 -2.699,0.66 -4.058,1.332 -1.328,0.699 -2.699,1.359 -5.391,2.027 -2.039,0.661 -4.027,2.032 -5.398,4.063 -2.031,1.988 -2.692,3.359 -3.352,5.391 -0.668,1.328 -0.668,3.359 0,5.386 0.66,2.032 1.321,3.364 3.352,5.391 2.039,1.371 4.73,2.031 8.09,2.699 3.398,0.66 6.757,0.66 10.82,0.66 4.019,-0.66 7.418,-0.66 10.117,-1.328 2.692,-0.66 5.391,-1.359 8.75,-2.031 4.063,-1.328 7.422,-2.027 10.781,-3.359 3.403,-1.36 6.09,-2.692 9.45,-4.719 2.703,-2.031 4.73,-3.36 6.101,-5.391 1.988,-1.371 2.692,-3.398 3.36,-5.39 0,-2.04 0,-4.071 0,-5.43 -1.372,-2.699 -2.7,-4.692 -4.731,-5.391 -2.699,-1.328 -4.73,-2 -7.418,-2 -2.699,0 -4.73,0 -7.422,0.672 z m 8.789,-34.41 -1.367,-4.031 -73.512,10.781 2.031,5.399 19.528,-2.7 5.429,13.52 -16.878,10.109 2.031,4.692 z m -43.867,8.117 29.687,-5.429 -25.629,15.55 z m 22.93,-37.109 8.789,-4.059 -12.153,-22.929 -8.078,4.058 4.719,10.121 -56.68,28.321 2.031,4.73 56.641,-29.031 z m -78.243,-10.777 2.692,4.019 61.41,-37.769 -2.691,-4.024 z m 41.84,-67.461 c -1.371,-2.032 -4.07,-3.36 -8.09,-3.36 -3.398,0 -8.789,0.668 -14.179,3.36 -5.391,2.031 -10.782,5.39 -16.168,9.449 -5.434,3.359 -9.461,8.09 -13.524,12.109 -3.359,4.731 -6.047,8.789 -6.718,12.852 -1.36,4.027 -1.36,6.719 0.671,8.75 1.329,2.039 4.02,3.359 8.079,3.359 4.07,0 8.75,-1.32 14.179,-3.359 5.391,-2.031 10.781,-5.391 16.18,-9.449 4.723,-3.364 9.449,-8.082 13.473,-12.153 3.398,-4.679 6.097,-9.41 6.757,-12.808 1.371,-4.02 0.661,-6.719 -0.66,-8.75 z m -7.429,5.39 c 0.671,1.367 0.671,3.36 0,6.059 -0.661,2.73 -2.692,6.09 -5.391,9.449 -2.688,3.402 -6.09,6.09 -10.109,9.449 -4.071,2.703 -7.43,4.731 -11.489,6.762 -4.019,1.328 -7.422,2.699 -10.121,2.699 -2.691,0 -4.719,-0.711 -6.051,-2.039 -1.371,-1.359 -1.371,-3.359 0,-6.09 0.661,-3.359 2.692,-6.05 5.391,-9.41 2.699,-2.699 6.051,-6.101 10.121,-8.789 3.359,-2.699 7.418,-5.391 11.438,-7.422 4.07,-1.328 7.421,-2.699 10.121,-2.699 2.73,0 4.73,0.699 6.09,2.031 z M 745,172.93 l -39.77,37.109 3.36,4.063 53.289,-49.922 -4.07,-3.36 -49.879,23.59 39.101,-35.738 -3.359,-4.063 -53.281,49.262 3.359,3.359 z m -47.191,-0.66 c -1.36,-1.329 -2.688,-2.7 -4.059,-3.36 -0.66,0.66 -1.328,1.32 -2.031,2.031 -0.668,0.661 -1.328,1.329 -2.699,1.989 -0.661,0.699 -2.032,1.371 -2.692,1.371 -0.668,0.66 -2.027,0.66 -2.699,0.66 -0.66,0 -2.027,-0.66 -2.688,-0.66 -1.371,-0.672 -1.371,-1.371 -2.031,-2.031 -0.672,0 -1.332,-0.668 -1.332,-1.329 -0.699,-0.711 -0.699,-1.371 -0.699,-2.031 0,-1.371 0,-2.031 0.699,-3.359 0.66,-0.711 1.332,-2.031 1.992,-3.403 1.371,-1.328 2.032,-2.699 2.731,-3.359 1.328,-1.367 2.699,-2.027 3.359,-2.699 1.328,-0.66 2.699,-0.66 4.731,-0.66 2.031,0 4.019,0 6.058,0.66 2.692,0.672 4.063,0.672 6.09,0.672 1.332,0 3.359,-0.672 5.391,-1.332 1.332,-0.7 3.359,-2.032 6.05,-3.399 2.04,-2.031 4.071,-4.019 6.758,-7.422 1.332,-2.031 2.703,-4.019 3.364,-5.39 0.668,-1.328 1.367,-2.699 1.367,-4.02 0.66,-1.371 0.66,-2.738 0,-4.07 0,-1.359 0,-2.688 -0.699,-3.359 -0.668,-1.36 -1.329,-2.032 -2,-2.692 -1.36,-1.367 -3.391,-2.738 -5.43,-2.738 -1.32,0 -3.36,0.711 -5.391,0.711 -1.328,0.66 -3.359,1.328 -4.719,2.687 -2,0.672 -3.359,2.032 -4.031,2.703 -0.66,0.661 -1.359,1.329 -2.027,2.028 1.367,0.66 2.027,1.992 3.359,3.359 0.699,-0.668 1.367,-1.367 2.028,-1.367 0.671,-0.66 1.371,-1.332 2.703,-1.992 0.66,-0.699 2.027,-0.699 3.398,-0.699 0.66,-0.668 1.988,0 2.692,0 0.668,0.699 1.328,1.359 1.988,1.359 0.711,1.332 1.371,2.699 1.371,3.359 0,1.371 0,2.703 0,4.063 -0.66,0.668 -1.371,2.039 -2.031,3.359 -0.66,0.668 -1.328,2.039 -2.032,2.699 -1.328,1.371 -2.699,2.032 -4.027,2.692 -0.699,0.711 -2.031,1.371 -3.391,1.371 -0.671,0.668 -2,0.668 -3.359,0.668 -0.672,-0.668 -2.699,-0.668 -4.07,-0.668 -1.992,-0.66 -4.02,-1.371 -6.051,-1.371 -2.031,0 -3.359,0 -5.391,0.711 -1.371,0.66 -2.699,1.988 -4.73,3.359 -1.328,1.328 -2.688,2.688 -4.059,4.059 -1.332,0.66 -1.992,1.992 -3.359,4.019 -2.031,2.699 -3.359,4.731 -4.731,6.762 -0.66,2.027 -0.66,4.019 -0.66,5.391 -0.66,2.027 0,3.359 0.66,4.726 0.668,1.332 1.372,2.692 2.7,3.363 1.371,1.36 2.699,2.028 4.058,2.688 2.032,0 3.364,0 4.731,0 2.031,-0.66 3.359,-1.328 4.73,-2.027 1.321,-0.661 3.352,-1.993 4.723,-2.692 1.328,-1.332 1.988,-2 3.359,-3.359 0.668,-0.672 1.328,-1.371 2.028,-2.031 z M 442.852,780 c 187.5,0 341.289,-153.121 341.289,-341.289 0,-187.5 -153.789,-341.2891 -341.289,-341.2891 C 254.648,97.4219 101.52,251.211 101.52,438.711 101.52,626.879 254.648,780 442.852,780 Z m 0,3.359 C 632.379,783.359 787.5,628.91 787.5,438.711 787.5,249.18 632.379,94.0195 442.852,94.0195 252.621,94.0195 98.1602,249.18 98.1602,438.711 c 0,190.199 154.4608,344.648 344.6918,344.648 z m 0,91.762 c 240.117,0 435.699,-196.293 435.699,-436.41 C 878.551,198.59 682.969,2.96875 442.852,2.96875 202.699,2.96875 6.44922,198.59 6.44922,438.711 c 0,240.117 196.24978,436.41 436.40278,436.41 z m 0,-6.101 C 679.57,869.02 873.16,676.129 873.16,438.711 873.16,201.949 679.57,8.35938 442.852,8.35938 205.391,8.35938 12.5,201.949 12.5,438.711 12.5,676.129 205.391,869.02 442.852,869.02 Z M 245.199,113.59 c 2.031,-1.36 4.063,-2.692 6.09,-3.36 2.691,-1.359 5.391,-2.691 8.09,-4.058 2.031,4.726 4.019,8.75 6.051,13.476 0.699,1.372 1.371,3.403 2.031,6.09 2.027,-1.359 4.059,-2.027 5.391,-2.687 -1.332,-2.031 -2.692,-4.071 -3.364,-5.391 -3.359,-8.129 -6.758,-15.551 -10.109,-22.9686 -4.07,-7.3906 -7.43,-14.8125 -10.789,-22.2305 -1.36,-2.0312 -2.031,-4.7304 -2.692,-7.4218 -2.027,0.6601 -3.398,1.332 -5.429,2.0312 1.371,2.6992 2.691,6.0508 4.062,9.4102 -3.359,0.7109 -6.761,0.7109 -9.453,0.7109 -3.359,0.6602 -5.387,0.6602 -7.418,0 0.699,2.6875 0.699,5.3867 0.699,8.0781 1.993,-0.6992 5.391,-1.3593 9.411,-2.0312 4.07,-1.3594 6.761,-1.3594 9.46,-2.0274 1.36,3.3594 3.36,6.7579 5.391,10.1172 1.359,3.3633 2.688,6.7617 4.719,10.1209 -2.692,1.36 -5.391,2.692 -8.078,4.063 -2.032,0.66 -4.063,1.328 -6.762,2.687 0.66,1.332 1.371,3.36 2.699,5.391 z m 35.742,5.39 c 1.36,-0.66 3.399,-1.32 4.719,-2.691 -0.66,-1.367 -2.031,-3.359 -2.691,-4.73 -2.699,-6.047 -5.391,-12.1488 -8.75,-17.5395 2.691,0 5.39,0 8.75,0.6719 2.691,0.6992 6.09,1.3594 9.453,2.0274 0,-2.6993 0.668,-4.7305 1.328,-8.0899 -1.988,0.6719 -5.391,1.3711 -10.121,0.6719 -4.68,0 -8.078,-0.6719 -11.438,-0.6719 -2.031,-3.3594 -3.363,-6.75 -5.39,-10.1094 -1.371,-3.3593 -2.699,-6.7578 -4.071,-10.1211 -1.32,-2.6992 -0.66,-4.7265 1.372,-6.0586 2.027,-0.6992 4.019,-1.3593 6.058,-2.0312 1.36,-1.3594 2.692,-1.3594 4.059,-0.6602 0.66,1.3321 2.031,2.6914 4.019,6.0508 0.711,-2.0273 2.032,-4.0586 4.063,-5.3906 -2.692,-3.3594 -5.391,-5.3867 -6.75,-6.0898 -1.332,-1.3282 -3.36,-1.3282 -4.731,-0.668 -4.019,2.039 -7.422,3.3984 -10.781,5.3984 -4.019,1.3594 -4.73,4.7227 -2.699,9.4492 2.699,7.4219 6.762,14.8399 10.781,22.9297 3.399,7.4219 6.758,14.8439 10.117,22.2619 0.711,1.332 2.032,3.359 2.703,5.39 z M 336.25,49.5313 c 1.371,1.3281 4.059,1.3281 5.391,2.6992 1.371,-2.6992 2.738,-3.4024 4.73,-6.7617 2.027,-2.6993 4.059,-5.3907 5.391,-8.0899 -1.332,-0.6992 -3.364,-2.0273 -5.391,-4.0586 -1.992,4.0586 -5.391,9.4492 -10.121,16.211 z m -21.559,10.7773 c 1.329,-1.3594 2.688,-3.3594 4.02,-5.3867 -3.359,-1.3711 -9.41,-4.7227 -18.199,-10.1211 -0.672,1.3281 -2.032,3.3594 -3.364,5.3984 8.75,4.0196 14.84,7.4219 17.543,10.1094 z m 1.329,25.6328 39.14,-10.7812 c -3.398,-6.7618 -4.73,-12.1485 -6.101,-20.2383 l -16.829,4.7265 -4.07,-17.539 c -0.66,-3.3985 -1.32,-5.4297 -3.359,-5.4297 -1.36,-0.6602 -4.723,-0.6602 -8.781,-0.6602 0.699,2.6914 0,5.3907 -0.668,8.0821 2.699,-1.9922 4.726,-1.9922 6.058,-1.9922 1.36,0 2.031,1.332 2.731,4.0195 l 3.359,14.8516 -16.879,4.0586 c 0.668,2.6914 2.039,6.0507 2.699,10.1211 0.7,3.3593 2.032,8.0781 2.7,10.7812 z m 3.39,-7.4219 -2.691,-10.1211 28.98,-7.4179 2.699,10.7812 z m 16.18,22.9295 c 2.031,0 4.058,-0.668 6.051,-0.668 0,-0.66 0,-1.3708 0,-3.3591 0,-1.3711 0,-4.0625 0,-6.7617 4.058,-0.6602 9.449,-2.0313 13.519,-3.3594 4.02,-0.6992 7.418,-1.3594 10.11,-2.0313 0,-2.0312 -0.661,-4.0586 -1.36,-5.3906 C 346.371,85.2695 327.5,90 308.59,94.0195 c 0.711,2.0313 0.711,4.0703 1.371,6.1015 3.359,-1.371 7.418,-2.6991 10.777,-3.4022 2.703,-0.668 5.391,-2.0274 8.09,-2.6993 2.692,-0.6601 4.063,-0.6601 6.762,-1.3203 0,0.6602 0,1.9922 0,3.3516 0,1.3711 0,3.3594 0,5.3982 z m 70.148,-80.9373 c 0.672,3.3594 0.672,6.0469 1.332,8.0781 0,2.0313 0,4.7305 0.7,6.7618 l 2,33.0468 c 0.699,3.3633 0.699,6.0508 0.699,8.0821 v 6.7578 c 2.691,0 4.73,-0.6602 6.722,-0.6602 l 8.118,-0.6992 c 1.332,0 4.031,0 6.722,0 -0.66,-2 -1.332,-3.3594 -1.992,-4.6875 -0.699,-2.0312 -0.699,-2.7422 -1.367,-3.4023 l -5.391,-14.8399 c 2.028,-3.3594 4.02,-6.0586 4.731,-8.0898 0.66,-1.3281 0.66,-3.3594 1.328,-4.7305 0,-1.3281 0,-3.3594 0,-5.3906 0,-2.6875 -0.668,-4.7188 -1.328,-6.0469 -1.371,-2.0312 -2.032,-3.4023 -4.063,-4.0703 -1.328,-0.6602 -4.07,-1.3203 -7.429,-2.0313 0,0.711 0,1.3711 0,2.0313 0,0.668 0,1.3672 -0.661,2.0391 0,0.6601 -0.66,2.6914 -2.031,4.7187 2.692,-0.6992 4.063,-0.6992 4.063,-0.6992 3.359,-0.6602 5.39,1.3711 5.39,4.7305 0,0.6992 0,1.3593 0,2.0312 0,1.3594 0,2.0274 0,2.6875 0,1.3711 -0.66,2.0313 -0.66,3.4024 -0.711,1.3281 -1.371,2.6992 -1.371,3.3593 -0.66,0.6602 -2.031,2.6992 -3.359,5.3907 1.988,5.3906 2.699,8.0898 2.699,8.0898 l 3.359,10.1094 -8.09,0.7109 -2.699,-41.8398 c -0.66,-2.0313 -0.66,-4.7305 -0.66,-8.0821 v -6.7578 c -2.031,0 -4.059,0 -6.762,0 z m -14.179,39.1367 6.761,-0.6992 1.328,13.5117 -7.378,0.6602 z m -2.028,-19.5703 7.418,-0.6679 1.371,14.1406 -7.422,0.668 z m -10.781,20.2305 7.422,-0.6602 1.367,13.4727 -7.418,0.668 z m -1.328,-19.5703 h 7.418 l 0.672,13.4805 -7.422,0.7031 z m -2.031,39.1406 c 2.031,-0.6992 4.73,-0.6992 6.757,-0.6992 l 6.051,-0.6602 v 4.7188 c 0.672,2.0312 0.672,4.0625 0.672,4.7305 v 4.7304 c 2.027,-0.7109 4.059,-0.7109 5.391,-0.7109 0,-1.9883 0,-4.0195 -0.672,-5.3867 0,-2.0313 0,-3.3633 0,-4.0235 l -0.66,-4.7265 h 6.05 c 2.04,-0.6602 4.071,-0.6602 6.758,-0.6602 -0.66,-2.7422 -0.66,-4.7305 -1.359,-6.7617 0,-1.3711 0,-3.3594 0,-5.3906 L 401.68,38.7109 c 0,-3.3593 -0.66,-4.7304 -0.66,-6.0507 v -5.3907 c -1.372,0 -2.7,0.6602 -2.7,0.6602 -0.66,0 -1.371,0 -2.699,0 0,1.3711 0.668,3.3594 0.668,4.0586 v 1.9922 l -19.57,2.039 -0.668,-4.0312 c 0,0 0,-1.3672 0,-2.6875 v -2.0313 c -2.031,0.6602 -3.352,0.6602 -5.391,0.6602 0,2.6914 0.668,4.7305 0.668,6.7617 0,1.3281 0.703,3.3594 0.703,6.0469 l 2.699,26.9922 c 0,1.3281 0,2.6992 0,6.0586 z m 70.82,-2.6875 c 2.699,0 4.73,0 6.758,0 l 12.812,0.6602 v 2.6992 c 0,0.6601 0,2.0273 0,3.3594 l -0.703,5.3906 c 2.031,0 3.402,0 3.402,0 0.661,0 1.321,0 3.36,0.6992 0,-2.0312 0,-4.0586 0,-4.7305 0,-1.3593 0,-2.6914 0,-4.7187 v -2.0313 l 14.18,0.6602 c 1.32,0 3.359,0.6992 6.05,0.6992 0,-1.3594 0,-2.6875 0,-3.3984 0,-1.3203 0,-2.0313 0,-3.3594 l 2.032,-22.2617 c 0,-2.0313 0,-3.3594 0,-4.0586 l 0.668,-4.0313 c -2.7,0 -4.731,0 -6.059,-0.6601 0,0.6601 0,0.6601 0,1.332 0,0.6602 0,0.6602 0,0.6602 v 2.0273 l -14.18,-1.3281 0.668,-9.4492 c 0,-2.0313 0,-3.3633 0.699,-4.0625 0,0 0.661,-0.668 1.332,-1.3282 0.661,0 4.059,0 10.821,0.6602 2.687,0 4.019,0 5.39,0.668 0.661,0.6992 1.329,0.6992 1.989,2.0312 0.699,0.6602 0.699,1.3711 1.371,2.6992 0,0.6602 0,2.6914 0,5.3907 1.359,-1.3321 2.027,-2 2.687,-2.6993 1.371,-1.332 2.703,-2.0312 5.391,-2.6914 -0.66,-0.6679 -1.328,-2.039 -1.328,-2.6992 -0.699,-1.332 -1.36,-2.6992 -2.031,-4.0195 -0.661,-1.3711 -1.36,-2.0313 -2.692,-2.7422 -0.668,-0.6602 -2.027,-1.3281 -4.058,-1.3281 -2.04,-0.6602 -4.731,-0.6602 -8.75,-0.6602 -6.758,-0.6992 -10.821,-0.6992 -12.821,0 -2.027,0.6602 -2.687,1.9883 -3.398,2.6992 0,1.3203 0,3.3516 -0.66,5.3907 l -0.661,12.1406 -13.519,-1.3594 v -4.7305 c -1.332,0 -1.992,0 -2.691,0 h -3.36 c 0,2.0274 0,3.3985 0,4.7305 0,1.3594 0,3.3594 0,4.7188 l -2.031,21.6093 c 0,1.9922 0,2.6914 0,3.3516 z m 8.09,-28.3633 13.469,1.3711 v 8.75 l -14.141,-0.6679 z m -0.672,14.8438 13.48,0.6679 -0.66,8.1211 -13.48,-0.6992 z m 20.242,-13.4727 14.18,1.3203 -0.711,8.7891 -14.141,-1.3594 z m -0.672,14.1406 14.141,1.3594 -0.66,8.0899 -14.18,-0.668 z m 43.832,-31.6796 2.028,1.3203 c 4.031,2.6992 8.089,5.4297 10.781,9.4609 3.359,4.0586 5.39,8.0781 6.058,11.4805 0.704,3.3594 0.704,6.7187 0.704,8.75 0,2.6992 0,5.3867 0,8.789 l -14.18,-3.4023 c -0.66,0 -3.363,-0.6602 -8.75,-2.6875 0,1.3594 -0.703,1.3594 -0.703,2.0273 0,0.6602 0,1.3711 0,1.3711 0,0.6602 0,1.3203 0,1.3203 l -1.328,2.6993 c 5.39,0.6601 8.089,1.3711 9.449,1.3711 l 14.14,3.3593 c 0,0.6602 0,2.0313 0,2.6914 -0.66,1.3672 -0.66,2.6993 -1.32,5.3907 l -0.711,2.6992 c 0,0.6992 0,1.3594 0,2.0273 l -1.988,6.0938 c 1.988,0.6679 3.359,0.6679 4.019,0.6679 0.668,0 1.372,0.6602 3.399,1.3204 l 0.672,-7.4219 c 0,-1.3281 0.66,-2.6875 0.66,-4.6875 0.66,-2.0313 0.66,-3.3906 1.367,-4.0625 l 0.66,-3.3594 14.852,3.3594 c 0.66,0 3.359,0.6719 8.75,2.0312 0,-0.6992 0,-2.0312 0.699,-2.0312 0,-0.6602 0,-1.3594 0,-1.3594 0,-0.668 0,-2 0.66,-3.3594 -4.058,-0.6679 -6.75,-1.3281 -8.078,-1.3281 L 544.02,73.7891 c 0.671,-0.668 1.332,-2.0274 2,-4.0196 0.699,-1.3711 2.031,-4.0703 5.429,-8.789 2.692,-4.0313 5.391,-6.7617 8.082,-8.0899 2.699,-1.3711 5.391,-2.6914 8.09,-3.3593 2.688,-0.7032 5.391,-1.3711 7.418,-1.3711 h 2.031 c -2.691,-2.6914 -4.058,-4.7188 -4.73,-6.0508 l -0.66,-3.3985 -2.032,0.6993 c 0,0.6679 -2.027,1.3281 -6.097,3.3593 -4.02,1.3321 -8.082,4.0313 -11.442,7.4297 -3.359,3.3516 -6.757,8.0821 -9.449,13.4727 0,-1.3321 0,-2.6914 0,-4.0235 0,-1.3671 0,-2.0273 0,-2.6992 0,-1.3594 -0.672,-2.0273 -0.672,-4.0586 -0.66,-2.0312 -1.367,-4.0625 -2.027,-6.0898 -0.66,-2 -2.031,-4.0313 -3.359,-6.0625 -1.372,-2.6875 -2.692,-4.0586 -4.063,-5.3867 -0.66,-0.6602 -3.359,-3.3633 -6.758,-6.7618 l -1.332,-0.6601 c 0,0.6601 -0.66,1.3711 -2.027,2.0312 -0.66,1.3282 -2.692,2.0274 -5.391,2.6993 z m 70.16,26.9882 c -0.671,1.3321 -0.671,2.6914 -1.371,3.3633 0,0.6602 0,0.6602 0,0.6602 l -1.332,2.6992 c 3.364,0.6992 6.063,1.3594 8.09,2.0273 l 17.543,6.7618 v 1.3203 l -0.672,1.3711 -1.359,2.0273 1.359,1.332 c 1.332,0.668 3.36,2.6993 5.391,6.0899 L 600,81.2109 c -0.66,0 -4.059,-1.332 -8.789,-3.3593 0,0.6679 0,1.3281 0,2.0273 0,0 0,0.6719 -0.66,1.332 v 0.668 l -1.332,2.0313 c 4.691,1.3593 7.422,2.0312 8.75,2.6914 l 18.203,6.7578 c 2.699,0.6601 4.726,2.0312 7.418,3.3594 0.711,-1.3282 0.711,-2.0274 0.711,-2.6993 l 0.66,-1.3203 c 0,-0.7109 0.66,-0.7109 0.66,-0.7109 L 626.289,90 624.301,88.6289 c -2.031,-1.3281 -4.731,-4.0586 -8.129,-8.0781 l -1.332,-1.3711 0.672,-1.9883 14.84,4.6875 c 2.027,1.3594 4.726,2.6914 8.75,4.0625 0,-1.3711 0.699,-2.0312 0.699,-2.0312 0,-0.6719 0,-1.3321 0,-2.0313 0.668,0 0.668,-1.3281 2,-2.6992 -6.063,-1.3281 -9.422,-2.6992 -9.422,-2.6992 l -14.84,-5.3907 4.731,-11.4414 c 0,-1.3671 0.66,-2.0273 0,-3.3984 0,-1.3281 -2.7,-3.3594 -8.129,-6.0508 -0.661,0 -0.661,0.6602 -0.661,1.3203 -0.671,0.711 -0.671,1.3711 -1.332,2.0313 -0.699,0.668 -1.367,1.3711 -3.398,2.6992 l 1.371,0.6992 c 0.66,0 2.027,0 2.688,0.6719 1.332,0 2.703,0.6602 2.703,1.3281 0,0 0,0.6992 0,1.3594 0,0.6719 -0.672,2.0312 -1.371,4.0312 l -1.332,4.7188 -17.539,-6.0469 c -0.661,0 -3.36,-1.3711 -8.079,-3.3633 z m -6.101,18.8711 c -0.66,2.0313 -1.32,3.3594 -1.32,4.7188 l -2.04,4.7305 c -0.66,1.332 -1.32,2.6914 -2.031,4.7304 3.403,0.6602 5.391,1.3203 6.762,1.9922 l 26.988,10.1096 c 1.332,4.73 1.332,9.461 1.332,15.551 v 2.699 c 2.028,-0.711 4.059,-1.371 6.758,-1.371 l -0.66,-2.032 -0.707,-3.359 -0.66,-4.73 -0.672,-5.387 7.43,3.359 c 1.32,0 3.351,1.367 6.05,2.699 0.66,-1.332 0.66,-2.699 1.371,-3.359 0,-0.672 0,-1.332 0,-2.031 l 1.989,-4.731 c 0,0 0.699,-0.66 0.699,-1.988 l 1.332,-2.0312 c -2.031,0 -4.02,-0.6679 -6.051,-2.039 0,1.3711 -0.672,2.039 -0.672,2.6992 0,0 0,0.6602 -0.699,1.371 l -1.328,4.02 -41.84,-15.5121 1.367,-4.0586 c 0.672,-0.6601 0.672,-1.332 0.672,-1.9922 l 1.36,-2.0273 c -0.7,-0.6719 -1.36,-0.6719 -2.032,-0.6719 0,0 -1.367,-0.6992 -3.398,-1.3594 z m -2.692,26.2815 c 1.372,1.371 2.692,2.738 3.403,4.73 l 10.109,-7.422 c -1.359,-0.66 -2.031,-1.328 -2.691,-1.988 l -2.028,-2.6991 -1.371,1.9883 c 0,0.7108 -0.66,0.7108 -2.031,2.0388 -1.328,0.66 -2.699,1.36 -3.359,2.031 z m 18.243,12.859 8.089,-9.461 c -2.031,-1.359 -4.07,-2.027 -5.39,-3.398 l -1.371,1.371 c -0.668,1.367 -1.328,2.699 -2.028,3.359 l -3.363,4.059 -0.668,0.672 c 2,0.66 3.36,2.027 4.731,3.398 z M 390.23,801.602 c 0.668,-5.391 4.032,-14.18 12.149,-9.454 0.672,0 1.332,0.661 2,1.332 0.699,0.7 0.699,1.36 0.699,2.731 1.332,15.508 -2.699,14.141 -10.816,18.867 -1.992,1.371 -4.032,2.692 -5.391,3.363 -1.332,1.36 -2.699,2.688 -3.359,4.719 -4.731,8.789 -6.762,29.692 6.758,32.391 8.75,0 12.109,-10.781 13.468,-17.539 h -4.058 c -1.328,4.718 -6.059,12.148 -12.149,7.418 -4.019,-2.7 -3.359,-10.121 -1.992,-14.18 0.66,-1.328 1.332,-2.699 1.992,-3.359 0.699,-0.661 2.028,-1.332 2.739,-2.032 0.66,-0.66 2.691,-1.988 4.019,-2.699 8.09,-4.719 11.481,-6.711 12.813,-15.5 0.668,-1.332 1.367,-4.73 1.367,-6.762 0.66,-3.359 0,-6.718 0,-8.75 -0.699,-2.027 -1.367,-4.058 -2.699,-6.058 -0.7,-1.36 -2.032,-2.731 -3.391,-3.391 -1.328,-0.668 -2.699,-0.668 -4.027,-0.668 -8.793,-0.66 -13.512,11.449 -14.84,19.571 z m 72.149,3.359 c -0.66,-5.391 1.371,-14.84 10.121,-12.152 0.699,0.671 1.371,0.671 2.031,1.371 0,0.66 0.668,1.332 1.367,2.699 4.024,14.84 -0.699,14.84 -7.418,20.23 -2.031,2.032 -3.402,3.36 -4.73,4.731 -0.66,1.32 -2.031,2.691 -2.699,4.719 -2.692,10.121 -0.66,31.019 13.48,30.351 8.789,-1.359 9.449,-12.14 10.117,-19.57 l -4.726,0.672 c 0,5.386 -3.363,13.468 -10.121,10.109 -4.723,-2.031 -5.391,-9.449 -4.723,-13.473 0.703,-1.367 0.703,-2.699 1.371,-4.058 0.66,-0.668 1.321,-1.328 2.031,-2.699 0.661,-0.661 2.032,-2.032 3.36,-3.36 7.422,-5.39 10.109,-8.082 10.109,-16.871 0,-2.039 0,-5.39 0,-7.43 -0.66,-3.351 -1.328,-6.05 -2.027,-8.082 -1.332,-2.699 -2.031,-4.058 -3.363,-5.386 -1.36,-1.371 -2.688,-2.703 -4.059,-2.703 -1.328,-0.7 -2.699,-0.7 -4.73,-0.7 -8.75,1.371 -10.782,14.18 -10.11,22.262 z m -261.008,-23.59 c 2.027,1.328 4.719,1.328 8.75,0 2.027,-0.711 4.059,-1.371 6.09,-2.699 2.027,-1.371 4.019,-3.402 6.059,-5.434 2.691,-1.988 4.718,-4.019 6.75,-6.047 2.031,-2.703 4.031,-5.39 6.058,-7.421 2.031,-2.7 3.402,-5.391 4.723,-8.09 2.039,-2.7 3.359,-5.391 4.07,-8.09 2.027,-5.391 2.688,-10.11 2.688,-14.18 0,-3.359 -1.36,-6.051 -3.399,-7.422 -2.691,-2.027 -5.39,-2.027 -8.75,-0.66 -4.058,1.332 -8.082,4.024 -12.14,8.082 -4.731,3.36 -8.75,8.09 -12.149,13.481 -2,2.699 -4.031,5.429 -5.391,8.129 -1.332,2.691 -2.699,5.39 -4.031,8.082 -2.027,6.058 -2.687,10.777 -2.687,14.136 0.66,4.063 1.328,6.762 3.359,8.133 z m 5.391,-8.133 c -1.371,-0.66 -2.032,-2.687 -2.032,-5.386 0,-2.692 0.661,-6.051 2.692,-10.122 1.367,-4.019 4.058,-8.082 6.758,-12.14 2.699,-4.031 5.39,-7.391 8.75,-10.121 2.691,-2.699 6.09,-4.688 8.789,-6.059 2.691,-0.66 4.73,-0.66 6.051,0 1.371,0.668 2.031,2.699 2.031,5.391 0,3.398 -0.66,6.097 -2.031,10.121 -1.321,4.058 -4.02,8.09 -6.719,11.488 -2.692,4.02 -6.09,7.418 -9.449,10.781 -2.692,2.688 -6.09,5.387 -8.793,6.047 -2.688,0.711 -4.688,0.711 -6.047,0 z m 45.187,-6.718 16.172,-29.02 -4.019,-2.031 -36.442,63.441 17.539,9.41 4.723,-8.75 -12.813,-7.422 10.121,-17.539 12.149,6.762 4.723,-8.133 z"
         style="fill:#013a89;fill-opacity:1;fill-rule:evenodd;stroke:none"
         id="path12" />
    </g>
  </g>
</svg>
