<svg width="287.16535" height="72.83465" xmlns="http://www.w3.org/2000/svg">
 <metadata id="metadata121">image/svg+xml</metadata>
 <defs>
  <pattern y="0" x="0" height="6" width="6" patternUnits="userSpaceOnUse" id="EMFhbasepattern"/>
 </defs>
 <g>
  <title>background</title>
  <rect fill="none" id="canvas_background" height="74.83465" width="289.16535" y="-1" x="-1"/>
 </g>
 <g>
  <title>Layer 1</title>
  <path fill="#013a89" fill-rule="evenodd" id="path99" d="m22.77912,34.56746c0,0 3.27997,-11.43992 0.31999,-11.67992c-2.95997,-0.23999 -4.79996,2.71998 -3.99997,7.51995c0.88,4.79996 0.48,2.71998 0.48,2.71998c0,0 -7.75994,0.79999 -7.75994,2.95998c0,2.07998 2.47998,2.71998 6.07995,1.43999c3.51998,-1.27999 0,5.19996 0,6.47995c0,1.27999 -5.83995,5.83995 -7.75994,6.07995c-1.91999,0.16 -0.4,5.19996 5.67996,1.43999c5.99995,-3.75997 16.47988,-9.83992 16.47988,-9.83992c0,0 0,5.67995 3.51997,7.51994c3.59997,1.91999 -4.79996,2.55998 -3.27998,3.99997c1.43999,1.43999 7.67995,0.4 11.03992,-3.59997c3.35998,-3.91997 -4.15997,-3.91997 -6.47995,-5.43996c-2.31998,-1.43999 0.4,-9.35993 8.39994,-9.19993c7.91994,0.23999 0.63999,-4.79997 -6.31996,-3.51998c0,0 1.28,-13.3599 -3.11997,-13.5999c-4.39997,-0.16 -6.47995,-1.67999 -3.75997,3.75997c2.71998,5.43996 0.63999,13.9999 0.63999,13.9999c0,0 -8.55994,6.31995 -10.47992,6.95995c-1.83999,0.55999 0.32,-7.99994 0.32,-7.99994z"/>
  <path fill="#013a89" fill-rule="evenodd" id="path101" d="m73.89874,20.96756c-0.48,0.24 1.99998,-5.03996 0.39999,-6.15996c-1.59998,-1.11999 11.67992,-1.35999 9.59993,2.47999c-2.07998,3.91997 -9.59993,3.43997 -9.99992,3.67997zm-17.35987,12.55991c1.83998,-0.96 29.43978,-15.03989 40.5597,-13.27991c0,0 3.43997,3.43998 -4.95997,5.27996c-8.47993,1.83999 -34.23974,13.19991 -34.23974,13.19991c0,0 -3.19998,-4.31997 -1.35999,-5.19996zm19.59985,11.35991c0,0 -7.51994,-0.79999 -4.31997,-6.15995c2.55998,-4.39997 9.35993,-9.59993 13.11991,-7.35995c2.55998,1.43999 2.23998,2.71998 1.03999,4.55997c-1.11999,1.67999 -2.71998,3.99997 -3.59998,4.39997l-0.87999,5.75995c0,0 10.71992,-1.03999 8.87994,5.83996c0,0 -4.47997,2.47998 -6.71995,-1.03999c0,0 -2.15999,-2.79998 -2.47999,-1.99999c-0.31999,0.88 1.19999,10.87992 -5.19996,5.83996c0,0 -4.31997,-4.79997 -0.47999,-3.27998l0.63999,-6.55995zm3.83997,-10.55992c0,0 -5.19996,3.59997 -1.27999,3.91997c0,0 1.91999,0.48 3.11998,-2.79998c1.27999,-3.27997 -1.83999,-1.11999 -1.83999,-1.11999zm-6.87995,15.19989c0.16,-0.32 -2.87998,1.75998 -4.55996,1.75998c-1.75999,0 -6.15996,-0.31999 -4.07997,2.63998c1.99998,2.95998 6.07995,4.07997 7.35994,1.91999c1.27999,-2.23998 1.11999,-5.99996 1.27999,-6.31995z"/>
  <path fill="#013a89" fill-rule="evenodd" id="path103" d="m111.49846,20.88756c0,0 7.11995,-8.23994 7.99994,-9.27993c0.87999,-1.03999 8.55994,0.4 4.87996,3.51997c-3.67997,3.11998 -5.03996,3.11998 -5.03996,3.11998l0.48,1.35999c0,0 9.59993,-3.27998 6.63995,2.15998l-5.91996,3.51998c0,0 -2.23998,2.71998 1.91999,1.35999c4.15997,-1.35999 8.87993,-0.88 5.03996,3.67997c-3.83997,4.55997 -3.83997,3.43997 -3.83997,3.43997c0,0 -1.19999,1.75999 3.67997,1.75999c4.87997,0 -0.47999,3.99997 -5.19996,4.23997l-0.71999,2.55998c0,0 0.95999,0 2.07998,0.08c3.11998,0.24 4.15997,0.87999 0.71999,3.11998c-3.59997,2.23998 -10.31992,2.07998 -10.47992,1.35999c-0.24,-0.88 -0.87999,-1.19999 2.63998,-2.23999c3.59998,-1.03999 0.88,-2.15998 -0.55999,-1.91998c-0.72,0.16 -1.59999,0.63999 -2.47998,1.19999c-1.51999,0.95999 -1.28,1.59999 -2.71998,0.55999c-0.72,-0.55999 -1.35999,-1.35999 -0.16,-1.75998c2.07998,-0.64 4.31996,-2.31999 4.31996,-2.31999c0,0 -1.03999,-4.31996 -2.95997,-2.95997c-1.91999,1.27999 -9.11994,1.91998 -5.27996,-1.35999c3.83997,-3.19998 7.03994,-6.79995 7.03994,-6.79995c0,0 -3.11997,-2.31999 -0.39999,-3.51998c2.63998,-1.19999 3.03997,-1.91998 3.03997,-1.91998l0.16,-3.67998l-4.87996,0.72zm4.79996,9.59993c1.91999,-0.24 1.27999,-1.11999 1.04,-2.23999c-0.24,-0.79999 -3.67998,2.63999 -1.04,2.23999zm16.39988,-6.39995c2.79998,-2.23999 8.23994,-5.67996 11.19992,-2.31999c4.23997,4.71997 -4.15997,9.19993 -4.15997,9.19993c0,0 9.19993,8.23994 -5.35996,15.11989c0,0 0.16,20.07985 -1.67999,20.39985c-1.59999,0.24 -3.03998,-2.15998 -3.27997,-14.63989c-0.16,-6.23995 -0.08,-12.47991 0.31999,-18.71986c0.08,-1.75999 0.24,-3.11998 0.4,-4.15997c0.32,-3.11998 0.32,-3.11998 2.55998,-4.87996zm5.83996,3.99997c0,0 -0.8,1.83998 -2.07999,2.23998c-1.27999,0.4 5.67996,5.75996 3.03998,8.63994c-2.63998,2.95997 -6.31995,3.75997 -6.31995,3.75997l0.08,-12.55991c0,-5.03996 7.03995,-6.79995 5.27996,-2.07998z"/>
  <path fill="#013a89" fill-rule="evenodd" id="path105" d="m168.53804,15.2876c0,0 0.79999,-5.19996 5.83995,-0.71999c5.03997,4.55996 -3.67997,4.71996 -3.67997,4.71996l-9.67993,7.35995c0,0 -2.15998,4.31996 7.03995,-0.48c9.19993,-4.87996 6.15995,-5.91996 17.51987,-4.23997c0,0 8.87993,5.03996 -2.79998,9.43993c0,0 -4.39997,0.48 0.95999,-3.35997c5.35996,-3.83997 -4.79996,-5.19996 -6.47995,-3.83997c-1.51999,1.11999 -3.75997,1.67998 0.08,3.35997c2.15999,0.95999 3.11998,1.03999 2.23998,4.07997c-0.39999,1.35999 -1.43998,3.19998 -3.83997,5.59996c0,0 -3.83997,1.83998 2.47998,2.23998c1.99999,0.16 2.47999,-0.08 2.95998,2.39998c0.4,2.07999 -0.47999,5.19997 -7.11994,7.91995c0,0 -3.35998,6.63995 8.31993,5.11996c0.88,-0.16 3.43998,-0.48 2.39999,1.43999c-1.43999,2.47998 -13.7599,1.51999 -13.7599,-4.39997l-6.95995,0c-7.27995,-0.08 -2.55998,-6.71995 0.95999,-11.35992c-9.83992,0.8 2.23999,-11.43991 3.51998,-10.39992c2.31998,1.83999 -0.08,2.47998 -1.43999,3.59997c-2.07999,1.59999 -4.15997,3.99997 -0.56,4.55997c4.87997,0.87999 3.59997,0.64 3.83997,-2.55998l0.24,-3.83997c0.16,-2.71998 1.59999,-4.39997 -1.59999,-4.07997c-2.15998,0.32 -5.67996,1.27999 -7.99994,5.11996c-3.51997,5.91996 -1.67999,4.23997 -2.15998,4.71996c-0.48,0.48 -3.19998,2.31999 -2.87998,-5.35996c0.08,-2.47998 5.51996,-9.43993 9.19993,-12.5599c3.35998,-2.79998 3.11998,0.71999 3.35998,-4.47997zm0.71999,29.11979c0.56,-2.63999 -3.83997,-0.96 -3.83997,2.23998c0,3.19997 3.19998,2.31998 5.11996,1.75999c5.27996,-1.35999 -2.15998,-0.16 -1.27999,-3.99997zm4.87996,1.75998c-0.31999,-0.08 0,-6.79995 3.75998,-4.07997c4.15997,3.03998 -2.23999,4.15997 -3.75998,4.07997z"/>
  <path fill="#013a89" fill-rule="evenodd" id="path107" d="m205.81776,28.4875l6.55995,-1.35999c0,0 0.72,-9.27993 -0.24,-10.39992c-0.95999,-1.03999 7.27995,-0.48 7.19995,2.95998c0,3.43997 -0.95999,2.87998 -1.91999,3.03998c-0.95999,0.15999 0,3.11997 0,3.11997c0,0 5.91996,-2.95998 5.91996,0.48c0,3.43997 -5.27996,1.75999 -7.67994,3.75997c-1.75999,1.51999 -2.07999,2.79998 -0.64,3.67997c1.75999,1.04 2.15999,-0.39999 4.47997,2.07999c3.19998,3.51997 9.43993,10.71992 15.75988,10.31992c0,0 -5.43996,6.39995 -13.7599,-1.51999c-1.99998,-1.83998 -2.31998,-3.43997 -3.51997,-4.71996c-3.43997,-3.83997 -4.79996,-5.27996 -4.79996,-5.27996c0,0 -10.23993,13.1999 -14.1599,13.5199c-3.91997,0.31999 8.79994,-7.67995 10.39992,-14.3199c0,0 1.67999,-2.31998 -0.95999,-2.15998c-3.43997,0.63999 -3.91997,-3.03998 -2.63998,-3.19998z"/>
  <path fill="#013a89" fill-rule="evenodd" id="path109" d="m258.85737,24.64753c0,0 -1.27999,7.19995 -4.87997,3.99997c0,0 -2.07998,-1.35999 -2.79998,1.99999c-0.71999,3.27997 -5.83995,2.07998 -5.43996,-3.75998c0.4,-5.91995 2.31999,-12.15991 5.99996,-8.79993c0,0 1.35999,5.03996 2.31998,0.64c1.04,-4.31997 3.67998,-5.91996 3.91997,-1.2c0.32,4.71997 3.51998,5.43996 3.59998,0.16c0.16,-5.35996 -0.96,-7.27994 1.03999,-7.83994c1.91999,-0.55999 1.75999,0.72 1.91999,2.07999c0.15999,1.43999 4.15996,-1.51999 4.31996,0.95999c0.16,2.55998 -2.23998,2.95998 -3.35997,3.19997c0,0 -1.11999,1.59999 -0.32,1.83999c0.79999,0.24 5.27996,-1.83999 3.19998,1.11999c-1.99999,3.03998 -2.71998,1.19999 -3.51998,2.07999c-0.87999,0.79999 3.27998,1.19999 3.27998,3.67997c0,2.55998 -1.19999,3.83997 -1.19999,3.83997c0,0 7.35994,-0.71999 8.31994,1.19999c0.87999,1.91999 0.63999,6.55995 -6.15996,6.47995c-6.79995,-0.15999 -1.75999,-1.59998 -0.95999,-2.07998c0.87999,-0.48 1.11999,-2.39998 -3.51998,-1.19999c-4.71996,1.19999 -10.55992,4.63996 -12.7999,5.11996c-2.31998,0.48 -5.03996,-1.99998 -3.27998,-3.03998c1.83999,-1.11999 11.11992,-3.27997 12.71991,-3.99997c1.51999,-0.71999 4.95996,-4.39996 0,-6.63995c-0.16,-0.08 -2.07998,-0.08 -2.39998,0.16zm-12.63991,9.59993c-0.63999,-0.32 -7.35994,4.55997 -5.03996,10.15993c0.71999,1.75998 1.59999,1.11999 2.47998,1.03999c1.91999,-0.16 3.75997,-2.47998 3.11998,-5.11996c-0.96,-3.75998 0,-5.67996 -0.56,-6.07996zm11.91991,9.91993c0,0 1.67999,-3.83997 -2.95998,-3.67998c-4.71996,0.08 0,-2.87997 3.67998,-3.59997c3.67997,-0.71999 7.11994,-2.87998 6.31995,1.75999c0,0 0.4,1.67999 -2.39998,3.11997l0.16,2.15999c0,0 8.55993,-2.23998 6.87995,0.87999c-1.67999,3.03998 -3.19998,3.19998 -5.59996,3.03998c0,0 0.16,9.11993 -3.91997,10.55992c-4.07997,1.43999 -7.27995,-0.48 -6.47996,-2.63998c0.88,-2.15998 0.88,-2.39998 3.59998,-1.51999c2.71998,0.8 1.43999,-3.59997 1.27999,-4.95996c-0.08,-1.27999 -4.39997,0.63999 -6.07996,2.39998c-1.67998,1.83999 -9.91992,-1.91998 -4.55996,-3.43997c5.43996,-1.59999 10.07992,-4.07997 10.07992,-4.07997z"/>
 </g>
</svg>