<svg width="397.16535" height="112.83465" xmlns="http://www.w3.org/2000/svg">
 <metadata id="metadata121">image/svg+xml</metadata>
 <defs>
  <pattern id="EMFhbasepattern" patternUnits="userSpaceOnUse" width="6" height="6" x="0" y="0"/>
 </defs>
 <g>
  <title>background</title>
  <rect x="-1" y="-1" width="399.16535" height="114.83465" id="canvas_background" fill="none"/>
 </g>
 <g>
  <title>Layer 1</title>
  <path d="m130.779119,49.567457c0,0 3.27997,-11.43992 0.31999,-11.67992c-2.95997,-0.23999 -4.79996,2.71998 -3.99997,7.51995c0.88,4.79996 0.48,2.71998 0.48,2.71998c0,0 -7.75994,0.79999 -7.75994,2.95998c0,2.07998 2.47998,2.71998 6.07995,1.43999c3.51998,-1.27999 0,5.19996 0,6.47995c0,1.27999 -5.83995,5.83995 -7.75994,6.07995c-1.91999,0.16 -0.4,5.19996 5.67996,1.43999c5.99995,-3.75997 16.47988,-9.83992 16.47988,-9.83992c0,0 0,5.67995 3.51997,7.51994c3.59997,1.91999 -4.79996,2.55998 -3.27998,3.99997c1.43999,1.43999 7.67995,0.4 11.03992,-3.59997c3.35998,-3.91997 -4.15997,-3.91997 -6.47995,-5.43996c-2.31998,-1.43999 0.4,-9.35993 8.39994,-9.19993c7.91994,0.23999 0.63999,-4.79997 -6.31996,-3.51998c0,0 1.28,-13.3599 -3.11997,-13.5999c-4.39997,-0.16 -6.47995,-1.67999 -3.75997,3.75997c2.71998,5.43996 0.63999,13.9999 0.63999,13.9999c0,0 -8.55994,6.31995 -10.47992,6.95995c-1.83999,0.55999 0.32,-7.99994 0.32,-7.99994z" id="path99" fill-rule="evenodd" fill="#013a89"/>
  <path d="m181.898739,35.967557c-0.48,0.24 1.99998,-5.03996 0.39999,-6.15996c-1.59998,-1.11999 11.67992,-1.35999 9.59993,2.47999c-2.07998,3.91997 -9.59993,3.43997 -9.99992,3.67997zm-17.35987,12.55991c1.83998,-0.96 29.43978,-15.03989 40.5597,-13.27991c0,0 3.43997,3.43998 -4.95997,5.27996c-8.47993,1.83999 -34.23974,13.19991 -34.23974,13.19991c0,0 -3.19998,-4.31997 -1.35999,-5.19996zm19.59985,11.35991c0,0 -7.51994,-0.79999 -4.31997,-6.15995c2.55998,-4.39997 9.35993,-9.59993 13.11991,-7.35995c2.55998,1.43999 2.23998,2.71998 1.03999,4.55997c-1.11999,1.67999 -2.71998,3.99997 -3.59998,4.39997l-0.87999,5.75995c0,0 10.71992,-1.03999 8.87994,5.83996c0,0 -4.47997,2.47998 -6.71995,-1.03999c0,0 -2.15999,-2.79998 -2.47999,-1.99999c-0.31999,0.88 1.19999,10.87992 -5.19996,5.83996c0,0 -4.31997,-4.79997 -0.47999,-3.27998l0.63999,-6.55995zm3.83997,-10.55992c0,0 -5.19996,3.59997 -1.27999,3.91997c0,0 1.91999,0.48 3.11998,-2.79998c1.27999,-3.27997 -1.83999,-1.11999 -1.83999,-1.11999zm-6.87995,15.19989c0.16,-0.32 -2.87998,1.75998 -4.55996,1.75998c-1.75999,0 -6.15996,-0.31999 -4.07997,2.63998c1.99998,2.95998 6.07995,4.07997 7.35994,1.91999c1.27999,-2.23998 1.11999,-5.99996 1.27999,-6.31995z" id="path101" fill-rule="evenodd" fill="#013a89"/>
  <path d="m219.498459,35.887557c0,0 7.11995,-8.23994 7.99994,-9.27993c0.87999,-1.03999 8.55994,0.4 4.87996,3.51997c-3.67997,3.11998 -5.03996,3.11998 -5.03996,3.11998l0.48,1.35999c0,0 9.59993,-3.27998 6.63995,2.15998l-5.91996,3.51998c0,0 -2.23998,2.71998 1.91999,1.35999c4.15997,-1.35999 8.87993,-0.88 5.03996,3.67997c-3.83997,4.55997 -3.83997,3.43997 -3.83997,3.43997c0,0 -1.19999,1.75999 3.67997,1.75999c4.87997,0 -0.47999,3.99997 -5.19996,4.23997l-0.71999,2.55998c0,0 0.95999,0 2.07998,0.08c3.11998,0.24 4.15997,0.87999 0.71999,3.11998c-3.59997,2.23998 -10.31992,2.07998 -10.47992,1.35999c-0.24,-0.88 -0.87999,-1.19999 2.63998,-2.23999c3.59998,-1.03999 0.88,-2.15998 -0.55999,-1.91998c-0.72,0.16 -1.59999,0.63999 -2.47998,1.19999c-1.51999,0.95999 -1.28,1.59999 -2.71998,0.55999c-0.72,-0.55999 -1.35999,-1.35999 -0.16,-1.75998c2.07998,-0.64 4.31996,-2.31999 4.31996,-2.31999c0,0 -1.03999,-4.31996 -2.95997,-2.95997c-1.91999,1.27999 -9.11994,1.91998 -5.27996,-1.35999c3.83997,-3.19998 7.03994,-6.79995 7.03994,-6.79995c0,0 -3.11997,-2.31999 -0.39999,-3.51998c2.63998,-1.19999 3.03997,-1.91998 3.03997,-1.91998l0.16,-3.67998l-4.87996,0.72zm4.79996,9.59993c1.91999,-0.24 1.27999,-1.11999 1.04,-2.23999c-0.24,-0.79999 -3.67998,2.63999 -1.04,2.23999zm16.39988,-6.39995c2.79998,-2.23999 8.23994,-5.67996 11.19992,-2.31999c4.23997,4.71997 -4.15997,9.19993 -4.15997,9.19993c0,0 9.19993,8.23994 -5.35996,15.11989c0,0 0.16,20.07985 -1.67999,20.39985c-1.59999,0.24 -3.03998,-2.15998 -3.27997,-14.63989c-0.16,-6.23995 -0.08,-12.47991 0.31999,-18.71986c0.08,-1.75999 0.24,-3.11998 0.4,-4.15997c0.32,-3.11998 0.32,-3.11998 2.55998,-4.87996zm5.83996,3.99997c0,0 -0.8,1.83998 -2.07999,2.23998c-1.27999,0.4 5.67996,5.75996 3.03998,8.63994c-2.63998,2.95997 -6.31995,3.75997 -6.31995,3.75997l0.08,-12.55991c0,-5.03996 7.03995,-6.79995 5.27996,-2.07998z" id="path103" fill-rule="evenodd" fill="#013a89"/>
  <path d="m276.538039,30.287597c0,0 0.79999,-5.19996 5.83995,-0.71999c5.03997,4.55996 -3.67997,4.71996 -3.67997,4.71996l-9.67993,7.35995c0,0 -2.15998,4.31996 7.03995,-0.48c9.19993,-4.87996 6.15995,-5.91996 17.51987,-4.23997c0,0 8.87993,5.03996 -2.79998,9.43993c0,0 -4.39997,0.48 0.95999,-3.35997c5.35996,-3.83997 -4.79996,-5.19996 -6.47995,-3.83997c-1.51999,1.11999 -3.75997,1.67998 0.08,3.35997c2.15999,0.95999 3.11998,1.03999 2.23998,4.07997c-0.39999,1.35999 -1.43998,3.19998 -3.83997,5.59996c0,0 -3.83997,1.83998 2.47998,2.23998c1.99999,0.16 2.47999,-0.08 2.95998,2.39998c0.4,2.07999 -0.47999,5.19997 -7.11994,7.91995c0,0 -3.35998,6.63995 8.31993,5.11996c0.88,-0.16 3.43998,-0.48 2.39999,1.43999c-1.43999,2.47998 -13.7599,1.51999 -13.7599,-4.39997l-6.95995,0c-7.27995,-0.08 -2.55998,-6.71995 0.95999,-11.35992c-9.83992,0.8 2.23999,-11.43991 3.51998,-10.39992c2.31998,1.83999 -0.08,2.47998 -1.43999,3.59997c-2.07999,1.59999 -4.15997,3.99997 -0.56,4.55997c4.87997,0.87999 3.59997,0.64 3.83997,-2.55998l0.24,-3.83997c0.16,-2.71998 1.59999,-4.39997 -1.59999,-4.07997c-2.15998,0.32 -5.67996,1.27999 -7.99994,5.11996c-3.51997,5.91996 -1.67999,4.23997 -2.15998,4.71996c-0.48,0.48 -3.19998,2.31999 -2.87998,-5.35996c0.08,-2.47998 5.51996,-9.43993 9.19993,-12.5599c3.35998,-2.79998 3.11998,0.71999 3.35998,-4.47997zm0.71999,29.11979c0.56,-2.63999 -3.83997,-0.96 -3.83997,2.23998c0,3.19997 3.19998,2.31998 5.11996,1.75999c5.27996,-1.35999 -2.15998,-0.16 -1.27999,-3.99997zm4.87996,1.75998c-0.31999,-0.08 0,-6.79995 3.75998,-4.07997c4.15997,3.03998 -2.23999,4.15997 -3.75998,4.07997z" id="path105" fill-rule="evenodd" fill="#013a89"/>
  <path d="m313.817759,43.487497l6.55995,-1.35999c0,0 0.72,-9.27993 -0.24,-10.39992c-0.95999,-1.03999 7.27995,-0.48 7.19995,2.95998c0,3.43997 -0.95999,2.87998 -1.91999,3.03998c-0.95999,0.15999 0,3.11997 0,3.11997c0,0 5.91996,-2.95998 5.91996,0.48c0,3.43997 -5.27996,1.75999 -7.67994,3.75997c-1.75999,1.51999 -2.07999,2.79998 -0.64,3.67997c1.75999,1.04 2.15999,-0.39999 4.47997,2.07999c3.19998,3.51997 9.43993,10.71992 15.75988,10.31992c0,0 -5.43996,6.39995 -13.7599,-1.51999c-1.99998,-1.83998 -2.31998,-3.43997 -3.51997,-4.71996c-3.43997,-3.83997 -4.79996,-5.27996 -4.79996,-5.27996c0,0 -10.23993,13.1999 -14.1599,13.5199c-3.91997,0.31999 8.79994,-7.67995 10.39992,-14.3199c0,0 1.67999,-2.31998 -0.95999,-2.15998c-3.43997,0.63999 -3.91997,-3.03998 -2.63998,-3.19998z" id="path107" fill-rule="evenodd" fill="#013a89"/>
  <path d="m366.857369,39.647527c0,0 -1.27999,7.19995 -4.87997,3.99997c0,0 -2.07998,-1.35999 -2.79998,1.99999c-0.71999,3.27997 -5.83995,2.07998 -5.43996,-3.75998c0.4,-5.91995 2.31999,-12.15991 5.99996,-8.79993c0,0 1.35999,5.03996 2.31998,0.64c1.04,-4.31997 3.67998,-5.91996 3.91997,-1.2c0.32,4.71997 3.51998,5.43996 3.59998,0.16c0.16,-5.35996 -0.96,-7.27994 1.03999,-7.83994c1.91999,-0.55999 1.75999,0.72 1.91999,2.07999c0.15999,1.43999 4.15996,-1.51999 4.31996,0.95999c0.16,2.55998 -2.23998,2.95998 -3.35997,3.19997c0,0 -1.11999,1.59999 -0.32,1.83999c0.79999,0.24 5.27996,-1.83999 3.19998,1.11999c-1.99999,3.03998 -2.71998,1.19999 -3.51998,2.07999c-0.87999,0.79999 3.27998,1.19999 3.27998,3.67997c0,2.55998 -1.19999,3.83997 -1.19999,3.83997c0,0 7.35994,-0.71999 8.31994,1.19999c0.87999,1.91999 0.63999,6.55995 -6.15996,6.47995c-6.79995,-0.15999 -1.75999,-1.59998 -0.95999,-2.07998c0.87999,-0.48 1.11999,-2.39998 -3.51998,-1.19999c-4.71996,1.19999 -10.55992,4.63996 -12.7999,5.11996c-2.31998,0.48 -5.03996,-1.99998 -3.27998,-3.03998c1.83999,-1.11999 11.11992,-3.27997 12.71991,-3.99997c1.51999,-0.71999 4.95996,-4.39996 0,-6.63995c-0.16,-0.08 -2.07998,-0.08 -2.39998,0.16zm-12.63991,9.59993c-0.63999,-0.32 -7.35994,4.55997 -5.03996,10.15993c0.71999,1.75998 1.59999,1.11999 2.47998,1.03999c1.91999,-0.16 3.75997,-2.47998 3.11998,-5.11996c-0.96,-3.75998 0,-5.67996 -0.56,-6.07996zm11.91991,9.91993c0,0 1.67999,-3.83997 -2.95998,-3.67998c-4.71996,0.08 0,-2.87997 3.67998,-3.59997c3.67997,-0.71999 7.11994,-2.87998 6.31995,1.75999c0,0 0.4,1.67999 -2.39998,3.11997l0.16,2.15999c0,0 8.55993,-2.23998 6.87995,0.87999c-1.67999,3.03998 -3.19998,3.19998 -5.59996,3.03998c0,0 0.16,9.11993 -3.91997,10.55992c-4.07997,1.43999 -7.27995,-0.48 -6.47996,-2.63998c0.88,-2.15998 0.88,-2.39998 3.59998,-1.51999c2.71998,0.8 1.43999,-3.59997 1.27999,-4.95996c-0.08,-1.27999 -4.39997,0.63999 -6.07996,2.39998c-1.67998,1.83999 -9.91992,-1.91998 -4.55996,-3.43997c5.43996,-1.59999 10.07992,-4.07997 10.07992,-4.07997z" id="path109" fill-rule="evenodd" fill="#013a89"/>
  <path stroke="null" d="m23.326918,60.646657c0,0 0.153303,0.61321 0.153303,0.996457l54.268721,0c0,0 -5.748809,-12.187461 -6.438662,-13.567175c-0.229954,-0.536559 -0.229954,-1.073109 0.689852,-0.459908c0.919816,0.61321 2.759428,1.916273 5.518856,7.818376c0,0 2.376171,-1.073109 2.989382,-1.303063c0.53655,-0.229954 0.53655,-0.459908 0.076651,-1.226411c-0.996467,-1.686319 -1.76297,-3.219326 -2.836079,-4.905645c-0.843164,-1.303063 -1.916273,-2.222869 -3.372638,-3.525931c-0.229944,-0.229954 -0.53655,-0.383257 0.996467,-1.533016c0,0 0.689852,0.53655 1.762961,1.533016c0.766513,0.766503 1.456365,1.379704 2.376171,2.529474c0.919816,1.303063 2.146227,3.295977 3.44929,5.978754c0,0 3.372629,-1.533016 3.985839,-1.916273c0,0 0.153303,-0.459898 -0.153303,-1.14976c-0.383257,-0.919806 -1.226411,-2.452823 -1.916273,-3.679234c-1.303063,-2.146217 -1.992915,-3.219326 -6.132056,-6.975211c-0.613201,-0.61321 -0.153303,-0.919816 0.229954,-1.456365c0.383257,-0.536559 0.843155,-0.996467 1.76297,-0.153303c0.383247,0.383257 1.762961,1.303063 3.602583,3.602583c1.916263,2.452823 4.369086,7.128523 6.438662,12.647369l5.7488,-1.226411c0,0 -1.456365,-8.738182 -8.04832,-16.019998c-0.61321,-0.61321 -5.058957,-5.902112 -12.800682,-9.198089c-3.909188,-1.609668 -8.814833,-2.606125 -14.103735,-2.606125c-3.372629,0 -13.26057,0.383247 -22.152064,8.04832c-0.229944,0.306605 -0.383247,0.536559 0.383257,0.689862c0.536559,0.153303 6.36201,1.379714 11.420958,6.591964c1.073109,1.073109 1.686319,1.686319 2.452823,3.142675c1.686319,3.142684 1.992924,4.369096 2.452832,6.438662c0.229944,0.996467 0.689852,5.595507 -3.679243,7.665082c-0.843155,0.459898 -4.215783,2.452823 -9.274731,1.073109c-2.836079,-0.61321 -5.442204,-2.069576 -8.048329,-1.992924c-2.682776,0.076651 -4.06249,0.459908 -7.741724,3.142684c-0.536559,0.459898 -1.609668,1.456365 -4.06249,0.996457zm15.176843,25.524693l4.369096,-4.445737c0,0 7.51177,7.128514 19.086031,7.051862c3.679234,0 7.895027,-0.613201 11.650912,-2.759428c0,0 -1.533016,-3.44928 -1.686319,-3.832536c0,0 1.916273,-0.919806 2.222878,-1.14976c0.306596,-0.153303 0.53655,-0.153303 0.843155,0.459908c0.306605,0.613201 1.14976,2.836079 1.76297,3.295977c0,0 2.606125,-1.609658 5.288892,-4.062481c3.142684,-2.989382 6.668616,-7.435129 8.354935,-14.793596c0.306605,-1.303063 1.073109,-5.058948 0.766503,-8.584879l6.055415,-0.459908c0,0 0.153303,6.591964 -1.609668,13.030626c-0.383257,1.303063 -1.303063,3.295977 -2.222869,5.135599c-1.073109,2.146217 -2.146227,4.139142 -3.066033,5.288902c-0.766503,1.073109 -5.21225,8.354925 -15.483448,12.187461c-1.073109,0.383257 -16.096649,6.132066 -30.353686,-2.069566c-1.073118,-0.61321 -3.755895,-2.146217 -5.978763,-4.292444zm30.813594,-9.121438l1.226411,2.529474l2.682776,-1.226411l-1.226411,-2.529474l-2.682776,1.226411zm-1.992915,-4.06249l1.226411,2.529483l2.682776,-1.226421l-1.226411,-2.529474l-2.682776,1.226411zm-2.069576,-4.139132l1.14977,2.529474l2.682776,-1.303063l-1.226421,-2.452823l-2.606125,1.226411zm-29.203926,20.849001l-5.595507,5.978754l-0.919806,-0.919806c-0.153303,-0.153303 -0.229954,-0.306605 -0.306605,-0.383257c-0.076651,-0.153303 -0.076651,-0.306605 0,-0.536559c0,-0.153303 0.076651,-0.383247 0.229954,-0.613201c0.076651,-0.229954 0.229954,-0.459908 0.459908,-0.766513c0.229954,-0.229944 0.383247,-0.383247 0.613201,-0.53655c0.306605,-0.229954 0.536559,-0.383257 0.689862,-0.383257l0.306605,-0.076651c0,-0.153303 0,-0.383247 0.076642,-0.53655c0,-0.153303 0.153303,-0.383257 0.306605,-0.689862c0.153303,-0.229954 0.383257,-0.53655 0.61321,-0.766503c0.229954,-0.306605 0.459898,-0.536559 0.766503,-0.689862c0.229954,-0.153303 0.383257,-0.229954 0.61321,-0.306596c0.153303,-0.076651 0.306596,-0.076651 0.459898,-0.076651c0.153303,0 0.306605,0.076651 0.383257,0.153293c0.076651,0 0.229954,0.153303 0.383257,0.229954l0.919806,0.919816zm-2.91273,2.29952l1.76297,-1.916273l-0.459908,-0.383247c-0.153303,-0.229954 -0.306596,-0.306605 -0.383247,-0.306605c0,-0.076651 -0.153303,-0.076651 -0.229954,-0.076651c-0.153303,0 -0.306605,0.076651 -0.459908,0.153303c-0.153303,0.076651 -0.306605,0.229954 -0.459908,0.383247c-0.153293,0.153303 -0.229944,0.306605 -0.383247,0.459908c-0.153303,0.229954 -0.229954,0.383257 -0.229954,0.536559c-0.076651,0.153303 0,0.306596 0,0.383247c0.076651,0.076651 0.153303,0.153303 0.229954,0.229954l0.613201,0.536559zm-0.766503,0.843155l-0.536559,-0.53655c-0.076651,-0.076651 -0.153303,-0.153303 -0.229954,-0.153303c-0.076642,-0.076651 -0.229944,-0.076651 -0.306596,0c-0.153303,0 -0.306605,0.076651 -0.459908,0.229944c-0.076651,0.076651 -0.229954,0.229954 -0.383257,0.383257c-0.153303,0.153303 -0.229944,0.229954 -0.306596,0.383257c-0.076651,0.076651 -0.076651,0.229954 -0.153303,0.306605c0,0.153303 0,0.229944 0.076651,0.306596c0,0.076651 0.076651,0.153303 0.153303,0.306605l0.53655,0.459908l1.609668,-1.686319zm-4.139142,-4.292444l0.766513,-0.689852l1.073109,1.226411l2.069566,-1.76297l-1.226411,-1.379714l0.766503,-0.766503l1.609668,1.839622l-6.132056,5.442195l-1.609668,-1.762961l0.843155,-0.689862l1.14977,1.303063l1.762961,-1.533007l-1.073109,-1.226421zm2.069566,-5.135599l0.383257,0.459908l-6.591964,4.905645l-0.306596,-0.383247l6.515303,-4.982306zm-4.062481,-1.456356l-4.829003,3.066023l-0.306596,-0.459898l4.982296,-3.142684c0.153303,-0.153303 0.383247,-0.229954 0.613201,-0.383257c0.229954,-0.076651 0.459908,-0.229954 0.689862,-0.229954c0.229954,-0.076642 0.383247,-0.153293 0.53655,-0.153293c0.229954,0 0.383257,0.076651 0.536559,0.153293c0.153303,0.076651 0.229954,0.153303 0.306605,0.306605c0.153303,0.229954 0.153303,0.459908 0.076651,0.689862c-0.076651,0.153303 -0.153303,0.383247 -0.306605,0.613201c-0.153303,0.229954 -0.383257,0.383257 -0.61321,0.61321l-0.459898,0.306596l-0.383257,-0.459898c0.153303,-0.076651 0.306605,-0.153303 0.383257,-0.229954c0.153303,-0.076651 0.229954,-0.229954 0.306596,-0.306605c0.076651,-0.076651 0.153303,-0.153303 0.153303,-0.306605c0.076651,-0.153293 0.076651,-0.306596 0,-0.383247c-0.076651,-0.076651 -0.153303,-0.153303 -0.229944,-0.153303c-0.076651,-0.076651 -0.229954,-0.076651 -0.383257,0c-0.076651,0 -0.229954,0.076651 -0.459908,0.153303c-0.153303,0.076651 -0.383257,0.153303 -0.613201,0.306605zm0.689852,-3.985839l0.229954,0.53655l-7.205175,3.755885l-0.306596,-0.459898l7.281816,-3.832536zm-6.668616,0.459898l5.748809,-2.376171l0.153303,0.459908l-7.588422,3.219326l-0.153303,-0.459898l4.752343,-4.139142l-5.518856,2.376171l-0.229944,-0.536559l7.588422,-3.219326l0.229944,0.53655l-4.982296,4.139142zm-2.146217,-6.975211l0.153303,0.53655c-0.153303,0.153303 -0.306605,0.229954 -0.459908,0.306605c-0.153303,0.076651 -0.306605,0.229954 -0.459908,0.383257c-0.076642,0.153303 -0.153293,0.306596 -0.076642,0.53655c0,0.076651 0.076642,0.229954 0.153303,0.306605c0.153293,0.076651 0.229944,0.153303 0.459898,0.229954c0.229954,0 0.459908,0.076651 0.766513,0.076651c0.306596,0 0.613201,-0.076651 0.843155,-0.076651c0.306605,-0.076651 0.613201,-0.153303 0.919806,-0.229954c0.306605,-0.076651 0.61321,-0.153303 0.766503,-0.229954c0.306605,-0.153303 0.61321,-0.229954 0.919816,-0.383247c0.306605,-0.153303 0.53655,-0.383257 0.689852,-0.536559c0.229954,-0.153303 0.306605,-0.306605 0.306605,-0.459908c0.076651,-0.153303 0.076651,-0.306596 0,-0.383247c0,-0.076651 0,-0.229954 -0.076651,-0.306605l-0.153303,-0.536559l-1.839612,0.536559l0.153293,0.689852l-1.073109,0.306605l-0.383247,-1.14976l4.06249,-1.226411l0.229944,0.843155c0.076651,0.153303 0.153303,0.383257 0.153303,0.61321c0,0.229954 0,0.459898 -0.153303,0.689852c-0.076651,0.229954 -0.229944,0.459908 -0.459898,0.689862c-0.229954,0.229954 -0.536559,0.383247 -0.843164,0.53655c-0.306596,0.153303 -0.613201,0.306605 -0.919806,0.459908c-0.383257,0.076651 -0.689852,0.229954 -1.073109,0.306605c-0.459908,0.153303 -0.919806,0.229954 -1.379714,0.306596c-0.536559,0.076651 -0.919806,0.153303 -1.226411,0.153303c-0.383257,-0.076651 -0.689852,-0.076651 -0.919806,-0.153303c-0.229954,-0.076642 -0.383257,-0.153293 -0.61321,-0.229944c-0.153303,-0.153303 -0.229954,-0.306605 -0.306605,-0.536559c-0.076651,-0.306605 -0.076651,-0.459908 0,-0.689852c0.153303,-0.229954 0.229954,-0.383257 0.383257,-0.536559c0.153303,-0.153303 0.306605,-0.229954 0.536559,-0.383257c0.229954,-0.153303 0.383247,-0.229954 0.53655,-0.306596l0.383257,-0.153303zm-3.679234,-8.048329l-0.076651,-0.536559l5.442204,-0.459898c0.229944,-0.076651 0.459898,-0.076651 0.689852,-0.076651c0.306605,0 0.536559,0.076651 0.843155,0.076651c0.229954,0.076651 0.536559,0.076651 0.689862,0.229944c0.229954,0.076651 0.459898,0.229954 0.613201,0.459908c0.076651,0.153303 0.153303,0.306605 0.229954,0.536559c0,0.229954 -0.076651,0.383247 -0.153303,0.613201c-0.153293,0.153303 -0.306596,0.383257 -0.53655,0.459908c-0.153303,0.153303 -0.383257,0.306605 -0.61321,0.383257c-0.229954,0.076651 -0.459898,0.153293 -0.689852,0.153293c-0.229954,0.076651 -0.536559,0.076651 -0.843164,0.153303l-5.288892,0.459908l-0.076651,-0.536559l5.21225,-0.459898c0.383247,-0.076651 0.689852,-0.076651 0.919806,-0.153303c0.229954,-0.076651 0.459898,-0.153303 0.613201,-0.306605c0.153303,-0.076651 0.229954,-0.229954 0.229954,-0.383257c0.076651,-0.076651 0.076651,-0.229944 0.076651,-0.383247c0,-0.153303 -0.076651,-0.306605 -0.153303,-0.383257c-0.153303,-0.076651 -0.229954,-0.153303 -0.383257,-0.229954c-0.153293,-0.076651 -0.383247,-0.076651 -0.689852,-0.076651c-0.229954,0 -0.536559,0 -0.919806,0l-5.135599,0.459908zm1.916263,-2.91273l6.285359,0.076651l0,0.536559l-8.278274,-0.076651l0,-0.536559l6.132056,-1.916263l-6.055405,-0.076651l0,-0.536559l8.278274,0.076651l0,0.536559l-6.36201,1.916263zm6.515313,-4.675691l-0.076651,0.53655l-8.201622,-0.766503l0.076651,-0.536559l8.201622,0.766513zm0.383257,-2.91273l-8.354935,-0.153303l0.153303,-0.53655l6.285359,0.076642l-5.825451,-2.29952l0.076651,-0.613201l7.741724,3.066023l-0.076651,0.459908zm-3.372629,-6.438662l1.073109,0.306605l-0.459908,1.533016l2.606125,0.766503l0.459908,-1.686319l1.073109,0.306605l-0.689862,2.222869l-7.895027,-2.376171l0.689862,-2.222869l0.996457,0.306605l-0.459898,1.68631l2.146217,0.689862l0.459908,-1.533016zm5.365543,-0.383257l-0.229944,0.536559l-7.588422,-3.066033l0.53655,-1.303063c0.076651,-0.153303 0.153303,-0.306605 0.306605,-0.383247c0.153303,-0.153303 0.306605,-0.229954 0.459898,-0.229954c0.229954,0 0.459908,0 0.766513,0c0.229954,0.076651 0.53655,0.153303 0.919806,0.306596c0.306605,0.153303 0.61321,0.306605 0.766503,0.459908c0.229954,0.153303 0.383257,0.229954 0.459908,0.383257l0.229954,0.229954c0.076651,0 0.153303,0 0.229954,0c0.076651,0 0.229954,0 0.383247,0c0.076661,0.076651 0.306605,0.076651 0.689862,0.229944l2.836079,0.919816l-0.229954,0.459898l-2.759428,-0.843155c-0.153303,-0.076651 -0.383257,-0.153303 -0.536559,-0.153303c-0.153293,0 -0.306596,0 -0.383247,0.076651c-0.076651,0.076651 -0.153303,0.153303 -0.153303,0.306605l-0.306605,0.613201l3.602583,1.456365zm-6.668606,-2.682776l2.069566,0.843164l0.306605,-0.689862c0,-0.153303 0.076651,-0.229954 0,-0.383247c0,-0.076651 -0.076651,-0.229954 -0.229954,-0.383257c-0.153303,-0.076651 -0.306605,-0.229954 -0.61321,-0.306605c-0.076651,-0.076651 -0.229944,-0.076651 -0.383247,-0.153303c-0.153303,0 -0.229954,0 -0.383257,0c-0.153303,0 -0.229954,0.076651 -0.306605,0.153303c-0.076651,0.076651 -0.153303,0.153303 -0.229954,0.306605l-0.229944,0.613201zm5.7488,-1.226411l0.229954,-0.53655c0.153303,0.076651 0.229954,0.076651 0.383257,0.153303c0.076651,0 0.229944,0.076651 0.306596,0.076651c0.153303,0 0.306605,0.076642 0.383257,0c0.076651,0 0.229954,0 0.306605,-0.076651c0.076651,-0.076651 0.153303,-0.153303 0.229954,-0.229954c0.076651,-0.076651 0.076651,-0.153303 0.076651,-0.229954c0.076651,-0.076651 0.076651,-0.229954 0.076651,-0.306605c0,-0.076651 -0.076651,-0.153303 -0.076651,-0.229954c-0.076651,-0.076651 -0.153303,-0.153303 -0.229954,-0.306596c-0.076651,-0.076651 -0.229954,-0.153303 -0.383257,-0.229954c-0.229954,-0.076651 -0.383257,-0.153303 -0.459908,-0.229954c-0.153293,-0.076651 -0.306596,-0.076651 -0.459898,-0.076651c-0.076651,0 -0.229954,0 -0.459908,0.153303c-0.153303,0.076651 -0.383247,0.153303 -0.613201,0.306605c-0.153303,0.153303 -0.383257,0.229944 -0.536559,0.306596c-0.153303,0.076651 -0.383257,0.076651 -0.61321,0.076651c-0.229944,0 -0.459898,-0.076651 -0.766503,-0.153303c-0.306605,-0.076642 -0.613201,-0.306596 -0.996457,-0.53655c-0.229954,-0.153303 -0.459908,-0.306605 -0.536559,-0.383257c-0.153303,-0.153303 -0.306596,-0.306605 -0.383247,-0.459898c-0.076651,-0.153303 -0.076651,-0.229954 -0.153303,-0.383257c0,-0.153303 -0.076651,-0.306605 0,-0.383257c0,-0.153303 0,-0.229954 0.076651,-0.383257c0.076651,-0.229944 0.229944,-0.383247 0.383247,-0.459898c0.229954,-0.076651 0.459908,-0.076651 0.61321,-0.076651c0.229954,0 0.459898,0 0.613201,0c0.229954,0.076651 0.383257,0.153303 0.536559,0.153303l0.306605,0.153303l-0.229954,0.459898c-0.076651,0 -0.153303,-0.076651 -0.229954,-0.076651c-0.076651,0 -0.229954,-0.076651 -0.383257,-0.076651c-0.076651,0 -0.229944,0 -0.383247,0c-0.076651,0.076651 -0.153303,0.076651 -0.229954,0.153303c-0.076651,0.076651 -0.153303,0.153303 -0.153303,0.229954c-0.076651,0.153303 -0.076651,0.306605 -0.076651,0.459908c0.076651,0.076651 0.076651,0.229954 0.153303,0.306605c0.076651,0.153293 0.229954,0.229944 0.306605,0.306596c0.153303,0.153303 0.229944,0.229954 0.383247,0.229954c0.153303,0.076651 0.306605,0.153303 0.459908,0.153303c0.153303,0.076651 0.306605,0.076651 0.459908,0.076651c0.076651,-0.076651 0.229944,-0.076651 0.306605,-0.153303c0.076642,0 0.229944,-0.076651 0.459898,-0.229954c0.153303,-0.076651 0.383257,-0.229954 0.536559,-0.306605c0.153303,-0.076642 0.383247,-0.153293 0.53655,-0.153293c0.153303,0 0.383257,0 0.61321,0c0.229954,0.076651 0.383257,0.153293 0.53655,0.229944c0.153303,0.076651 0.383257,0.153303 0.536559,0.229954c0.383257,0.229954 0.613201,0.383257 0.843155,0.536559c0.153303,0.229954 0.306605,0.383247 0.459908,0.613201c0.076651,0.153303 0.153303,0.383257 0.153303,0.536559c0,0.153303 0,0.306605 -0.076651,0.459908c-0.076651,0.229944 -0.229954,0.383247 -0.306605,0.459898c-0.153303,0.076651 -0.306605,0.153303 -0.53655,0.229954c-0.153303,0 -0.306605,0 -0.536559,0c-0.229954,0 -0.383257,0 -0.61321,-0.076651c-0.153293,-0.076651 -0.383247,-0.076651 -0.53655,-0.153303l-0.306605,-0.153303zm4.599049,-3.372629l-0.306605,0.459908l-6.975221,-4.369096l0.306605,-0.459908l6.975221,4.369096zm-4.905655,-5.595507c-0.306596,-0.229954 -0.53655,-0.459898 -0.843155,-0.689852c0.306605,-0.383257 0.61321,-0.766513 0.919806,-1.14976c0.306605,-0.383257 0.536559,-0.766513 0.843164,-1.14976c0.306596,0.153293 0.613201,0.383247 0.843155,0.613201c-0.229954,0.306605 -0.459908,0.61321 -0.766503,0.996457c0.996457,0.689862 1.916263,1.379714 2.836069,2.146227c0.919816,0.689852 1.916273,1.456365 2.91273,2.146217c-0.153303,0.153303 -0.229954,0.306605 -0.383257,0.459908c-0.919806,-0.689862 -1.916263,-1.456365 -2.836069,-2.146227c-0.996467,-0.766503 -1.916273,-1.456365 -2.836079,-2.146217c-0.229954,0.306605 -0.459908,0.613201 -0.689862,0.919806zm9.504695,-0.229954l-0.459908,0.459908l-2.759428,-2.606125l-4.215783,-1.992915l0.459898,-0.459908l3.142684,1.456365l-1.686319,-2.989382l0.459908,-0.53655l2.29952,4.139132l2.759428,2.529474zm11.957517,-17.476363l1.226411,-0.383257c0.153303,-0.076651 0.306605,-0.076651 0.459898,-0.076651c0.153303,0 0.306605,0.153303 0.459908,0.306605c0.229954,0.153303 0.306605,0.306605 0.459908,0.536559c0.076651,0.229944 0.229954,0.383247 0.306605,0.53655c0,0.229954 0.076642,0.383257 0.153293,0.536559c0.153303,0.383257 0.229954,0.689852 0.229954,0.996457c0.076651,0.229954 0,0.536559 0,0.766503c-0.076651,0.229954 -0.153303,0.383257 -0.229954,0.536559c-0.153293,0.153303 -0.306596,0.229954 -0.459898,0.306605l-0.536559,0.153303l1.073109,3.372629l-0.459898,0.153303l-2.682776,-7.741724zm1.68631,3.219326l0.536559,-0.229944c0.153303,-0.076651 0.229954,-0.076651 0.306605,-0.153303c0.076651,-0.076651 0.153303,-0.229954 0.153303,-0.306605c0,-0.153303 0,-0.306605 0,-0.383257c0,-0.153303 -0.076651,-0.383247 -0.153303,-0.53655c-0.076651,-0.229954 -0.153303,-0.459908 -0.229954,-0.61321c-0.153303,-0.153303 -0.229954,-0.306605 -0.306605,-0.306605c-0.153303,-0.076651 -0.229954,-0.076651 -0.306605,-0.076651l-0.766503,0.306605l0.766503,2.29952zm4.139142,-4.982296c0.306605,-0.076651 0.61321,0 0.919816,0.306605c0.383247,0.306605 0.689852,0.766503 0.996457,1.379714c0.306605,0.61321 0.53655,1.303063 0.689852,1.992915c0.153303,0.766513 0.229954,1.456365 0.229954,2.069576c0,0.689852 -0.076651,1.226411 -0.306605,1.609668c-0.153303,0.383247 -0.383247,0.613201 -0.689852,0.689852c-0.306605,0.076651 -0.61321,-0.076651 -0.996457,-0.383257c-0.306605,-0.306596 -0.61321,-0.766503 -0.919816,-1.379714c-0.306596,-0.613201 -0.53655,-1.226411 -0.689852,-1.916263c-0.153303,-0.766503 -0.229954,-1.456365 -0.229954,-2.146217c0,-0.689862 0.076651,-1.226411 0.306605,-1.609668c0.153303,-0.383257 0.383247,-0.61321 0.689852,-0.61321zm0.229954,1.073109c-0.153303,0 -0.306605,0.153303 -0.459908,0.459908c-0.153293,0.229954 -0.153293,0.689862 -0.153293,1.14976c0,0.536559 0.076642,1.073109 0.153293,1.533016c0.153303,0.536559 0.306605,1.073109 0.459908,1.456365c0.229954,0.459908 0.459908,0.766503 0.689862,0.996457c0.229944,0.229954 0.459898,0.383257 0.689852,0.306605c0.153303,0 0.306605,-0.153303 0.459908,-0.459908c0.153303,-0.306605 0.153303,-0.689852 0.153303,-1.14976c0,-0.53655 0,-0.996457 -0.153303,-1.533016c-0.153303,-0.53655 -0.306605,-0.996457 -0.536559,-1.533007c-0.153303,-0.459908 -0.383257,-0.766513 -0.689852,-0.996467c-0.229954,-0.229954 -0.383257,-0.306596 -0.61321,-0.229954zm7.895027,-1.226411l-0.076651,-1.073109l2.989382,0l0,1.073109l-1.226411,0l0.229944,7.205175l-0.613201,0l-0.153303,-7.205175l-1.14976,0zm15.253494,0.61321c0.229954,0.076651 0.383257,0.076651 0.536559,0.153303c-0.076651,1.379714 -0.153303,2.836079 -0.229954,4.215793c-0.076651,1.379704 -0.229954,2.759418 -0.383257,4.215783c-0.153303,-0.076651 -0.383247,-0.153303 -0.53655,-0.153303c0,-0.383247 0,-0.766503 0.076651,-1.14976c0,-0.383247 0,-0.766503 0.076651,-1.073109c-0.306605,-0.076651 -0.536559,-0.153303 -0.843164,-0.229954c-0.229954,-0.076651 -0.53655,-0.153303 -0.766503,-0.229954c-0.306605,0.61321 -0.61321,1.303063 -0.996457,1.916273c-0.153303,-0.076651 -0.306605,-0.076651 -0.536559,-0.153303c0.613201,-1.226411 1.226411,-2.452823 1.839622,-3.679234c0.613201,-1.303063 1.226411,-2.529474 1.762961,-3.832536zm-0.383257,5.135599c0.076651,-0.536559 0.076651,-1.14976 0.153303,-1.686319c0,-0.613201 0.076651,-1.14976 0.076651,-1.762961c-0.229954,0.53655 -0.459898,1.073109 -0.766503,1.609658c-0.229954,0.459908 -0.459908,0.996467 -0.766513,1.533016c0.229954,0 0.459908,0.076651 0.689862,0.153303c0.229954,0.076651 0.383257,0.076651 0.613201,0.153303zm4.139142,-1.839622l-2.29952,5.748809l-0.536559,-0.229954l3.066033,-7.588422l0.536559,0.229954l-0.536559,6.208708l2.29952,-5.518856l0.536559,0.229954l-3.142684,7.588422l-0.459898,-0.229954l0.53655,-6.438662zm0.919816,7.051872l3.832536,-7.205165l0.843155,0.459898c0.153303,0.076651 0.306605,0.229954 0.459908,0.383257c0.153293,0.153303 0.306596,0.306605 0.383247,0.53655c0.153303,0.229954 0.153303,0.459908 0.153303,0.766513c0,0.306605 0,0.613201 -0.076651,0.919806c-0.076651,0.306605 -0.229954,0.61321 -0.306605,0.919806c-0.153293,0.306605 -0.306596,0.689862 -0.53655,1.073118c-0.229954,0.383247 -0.459908,0.766503 -0.689862,1.14976c-0.229944,0.383247 -0.53655,0.766503 -0.766503,1.073109c-0.306605,0.229954 -0.536559,0.459908 -0.766503,0.53655c-0.153303,0.153303 -0.383257,0.153303 -0.61321,0.229954c-0.153303,0 -0.306605,0 -0.459908,-0.076651c-0.153293,-0.076651 -0.306596,-0.153303 -0.53655,-0.229944l-0.919806,-0.536559zm3.832536,-6.055405l-2.91273,5.442195l0.383257,0.229954c0.229944,0.076651 0.459898,0.153303 0.613201,0.229954c0.229954,0 0.459908,-0.076651 0.689862,-0.153303c0.153293,-0.076651 0.383247,-0.229954 0.53655,-0.459898c0.153303,-0.153303 0.383257,-0.383257 0.536559,-0.689862c0.153303,-0.229954 0.383247,-0.613201 0.613201,-0.996457c0.229954,-0.383257 0.383257,-0.766513 0.459908,-0.996457c0.076651,-0.306605 0.153303,-0.536559 0.153303,-0.766513c0.076651,-0.229954 0.076651,-0.459898 0,-0.689852c-0.076651,-0.153303 -0.076651,-0.306605 -0.153303,-0.459908c-0.076651,-0.076651 -0.153303,-0.229954 -0.306605,-0.306605c-0.076651,-0.076651 -0.153303,-0.153303 -0.229954,-0.153303l-0.383247,-0.229944zm7.435119,4.59904c0.229954,-0.229954 0.459908,-0.536559 0.689852,-0.843155c0.383257,0.306596 0.689862,0.613201 1.073109,0.919806c0.383257,0.306605 0.766513,0.61321 1.14977,0.919806c-0.229954,0.306605 -0.459908,0.61321 -0.689862,0.843164c-0.306605,-0.229954 -0.613201,-0.459908 -0.919806,-0.766513c-0.766513,0.996457 -1.533016,1.916273 -2.29952,2.836079c-0.766513,0.996457 -1.533016,1.839622 -2.29953,2.759428c-0.153293,-0.153303 -0.306596,-0.229954 -0.383247,-0.383257c0.766503,-0.843155 1.533016,-1.762961 2.222869,-2.682776c0.766503,-0.996457 1.533016,-1.916263 2.29952,-2.836079c-0.306605,-0.306596 -0.613201,-0.53655 -0.843155,-0.766503zm3.44928,6.208708l-0.766503,0.766513l-1.14976,-1.073109l-1.916273,1.916263l1.303063,1.226411l-0.766503,0.766503l-1.686319,-1.609658l5.825461,-5.902112l1.609658,1.609668l-0.689852,0.766503l-1.303063,-1.226411l-1.609668,1.609668l1.14976,1.14976zm-2.529474,4.445747l6.285359,-5.288902l0.383257,0.459908l-5.442204,4.522389l1.226411,1.456365l-0.843155,0.766503l-1.609668,-1.916263zm7.588422,1.762961l-0.919806,0.61321l-0.996457,-1.303063l-2.222878,1.609668l1.073118,1.456365l-0.919816,0.613201l-1.379714,-1.916263l6.821918,-4.829003l1.379714,1.916273l-0.843155,0.613201l-1.073109,-1.379714l-1.916273,1.303063l0.996457,1.303063zm3.44929,3.602592l-0.229954,-0.459908c0.076651,-0.076651 0.153303,-0.153303 0.229954,-0.229954c0.076651,-0.076651 0.229944,-0.153303 0.306596,-0.306605c0.076651,-0.076642 0.076651,-0.229944 0.153303,-0.383247c0,-0.153303 0,-0.229954 -0.076651,-0.383257c-0.153303,-0.229954 -0.306596,-0.306605 -0.53655,-0.383257c-0.229954,-0.076651 -0.459908,-0.076651 -0.766513,0c-0.306596,0.076651 -0.613201,0.153303 -0.919806,0.306605c-0.306605,0.153303 -0.689852,0.306605 -1.073109,0.536559c-0.459908,0.229954 -0.766513,0.459898 -0.996457,0.613201c-0.306605,0.229954 -0.536559,0.383257 -0.766513,0.61321c-0.153303,0.229954 -0.306605,0.459898 -0.383247,0.689852c-0.076651,0.229954 0,0.459908 0.076642,0.61321c0.076651,0.153303 0.229954,0.306596 0.459908,0.383247c0.153303,0 0.306605,0 0.459908,0l0.689852,-0.306596l0.306605,0.459898c-0.076651,0.076651 -0.229954,0.153303 -0.383257,0.229954c-0.153303,0.076651 -0.306596,0.153303 -0.613201,0.229954c-0.229954,0.076651 -0.459908,0.153303 -0.766513,0.153303c-0.306596,0 -0.53655,-0.076651 -0.689852,-0.229954c-0.229954,-0.076651 -0.383257,-0.229954 -0.459908,-0.383257c-0.076651,-0.229954 -0.153303,-0.459898 -0.153303,-0.766503c0.076651,-0.229954 0.153303,-0.536559 0.383257,-0.843155c0.229954,-0.306605 0.536559,-0.61321 0.919806,-0.843164c0.306605,-0.306605 0.61321,-0.53655 0.919816,-0.689852c0.229944,-0.153303 0.53655,-0.306605 0.843155,-0.536559c0.383257,-0.229954 0.843155,-0.383257 1.14976,-0.53655c0.383257,-0.153303 0.766513,-0.306605 1.14976,-0.383257c0.383257,0 0.689862,-0.076651 0.919806,0c0.306605,0 0.536559,0.076651 0.766513,0.229954c0.153303,0.076651 0.306605,0.229954 0.383257,0.459898c0.153293,0.229954 0.153293,0.536559 0.076651,0.766513c-0.076651,0.229954 -0.229954,0.459898 -0.459908,0.689852c-0.153303,0.229954 -0.383257,0.383257 -0.61321,0.536559l-0.306596,0.153303zm3.525931,2.146217c0.153303,0.229954 0.076651,0.61321 -0.076651,0.996457c-0.229954,0.383257 -0.61321,0.766513 -1.14976,1.14976c-0.61321,0.459908 -1.226411,0.766513 -1.916273,1.073118c-0.689852,0.306596 -1.303063,0.53655 -1.992915,0.613201c-0.689862,0.153303 -1.226411,0.153303 -1.686319,0.076651c-0.459898,-0.153303 -0.689852,-0.306605 -0.843155,-0.61321c-0.076651,-0.306596 -0.076651,-0.613201 0.153303,-0.996457c0.229954,-0.383247 0.613201,-0.766503 1.14976,-1.14976c0.53655,-0.459908 1.14976,-0.766503 1.839612,-1.073109c0.689862,-0.306605 1.303063,-0.459908 1.992924,-0.61321c0.689852,-0.153293 1.303063,-0.153293 1.686319,0c0.459898,0.076651 0.766503,0.306605 0.843155,0.536559zm-0.996457,0.459908c-0.076651,-0.153303 -0.306605,-0.306605 -0.61321,-0.383257c-0.306605,-0.076651 -0.689852,-0.076651 -1.226411,0.076651c-0.459908,0.076651 -0.996457,0.229954 -1.533016,0.459908c-0.459898,0.229944 -0.919806,0.459898 -1.303063,0.766503c-0.383247,0.229954 -0.689852,0.536559 -0.843155,0.766503c-0.153303,0.306605 -0.229954,0.536559 -0.153303,0.689862c0.076651,0.229954 0.306605,0.383257 0.61321,0.383257c0.306596,0.076642 0.766503,0.076642 1.226411,0c0.459898,-0.153303 0.996457,-0.306605 1.456356,-0.459908c0.536559,-0.229954 0.996467,-0.536559 1.379714,-0.843155c0.459908,-0.229954 0.689862,-0.536559 0.843164,-0.843164c0.153303,-0.229954 0.229954,-0.459898 0.153303,-0.613201zm2.29952,3.066023l0.229954,0.689862l-5.978763,3.142675l6.745267,-0.53655l0.229954,0.613201l-7.971678,2.376171l-0.153303,-0.53655l6.055415,-1.76297l-6.438662,0.536559l-0.153303,-0.459908l5.672149,-2.989382l-5.978754,1.76297l-0.229954,-0.53655l7.971678,-2.29953zm1.686319,6.055415l0.076651,0.689852l-6.285369,2.29952l6.745267,0.306605l0.076651,0.689862l-8.201632,1.226411l-0.076642,-0.536559l6.208708,-0.919806l-6.36201,-0.306605l-0.076651,-0.459908l5.978754,-2.222869l-6.208708,0.919806l-0.076651,-0.53655l8.201632,-1.14976zm0.843155,8.431576l0.076651,0.536559l-5.442204,0.229954c-0.229954,0 -0.459908,0 -0.689852,-0.076651c-0.306605,0 -0.536559,0 -0.843164,-0.076651c-0.229954,-0.076651 -0.459898,-0.153303 -0.689852,-0.229954c-0.229954,-0.153303 -0.383257,-0.306605 -0.536559,-0.459908c-0.153303,-0.229954 -0.153303,-0.459898 -0.153303,-0.613201c-0.076651,-0.229954 0,-0.459908 0.153303,-0.61321c0.153303,-0.153303 0.306605,-0.306605 0.459908,-0.459908c0.229954,-0.153293 0.459898,-0.229944 0.689852,-0.306596c0.229954,-0.076651 0.459908,-0.153303 0.689862,-0.153303c0.229954,0 0.53655,-0.076651 0.843155,-0.076651l5.288902,-0.153303l0.076651,0.536559l-5.21225,0.153293c-0.383257,0.076651 -0.689852,0.076651 -0.996457,0.153303c-0.229954,0 -0.383257,0.076651 -0.536559,0.229954c-0.153303,0.076651 -0.229954,0.229954 -0.306605,0.306605c-0.076651,0.153303 -0.076651,0.306605 -0.076651,0.459908c0,0.153293 0.076651,0.306596 0.153303,0.383247c0.076651,0.076651 0.229954,0.153303 0.383257,0.229954c0.153303,0.076651 0.383257,0.153303 0.61321,0.153303c0.306596,0 0.613201,0 0.919806,0l5.135599,-0.153303zm-2.069566,2.836079l-6.208717,-0.383257l0,-0.53655l8.278283,0.459898l-0.076651,0.61321l-6.132056,1.456365l6.055405,0.383247l0,0.536559l-8.278283,-0.459908l0,-0.53655l6.36202,-1.533016zm-6.668616,4.292444l0.076651,-0.61321l8.124971,1.303063l-0.076651,0.536559l-8.124971,-1.226411zm4.828994,5.978754l0.153303,-0.536559c0.076651,0 0.229954,0 0.306605,0.076651c0.153293,0 0.306596,0 0.383247,-0.076651c0.153303,0 0.306605,-0.076651 0.459908,-0.153303c0.076651,-0.076642 0.153303,-0.153293 0.229954,-0.306596c0.076651,-0.229954 0,-0.459908 -0.076651,-0.61321c-0.153303,-0.229954 -0.383257,-0.383247 -0.61321,-0.53655c-0.306596,-0.153303 -0.53655,-0.306605 -0.843155,-0.459908c-0.383257,-0.076651 -0.766503,-0.229954 -1.14976,-0.306605c-0.459908,-0.153303 -0.919806,-0.229954 -1.226411,-0.229954c-0.306605,-0.076651 -0.61321,-0.076651 -0.919816,-0.076651c-0.306596,0 -0.53655,0.076651 -0.766503,0.229954c-0.229954,0.153303 -0.383257,0.306605 -0.383257,0.536559c-0.076651,0.153303 -0.076651,0.306605 0.076651,0.459908c0.076651,0.229944 0.229954,0.306596 0.306605,0.383247l0.689862,0.229954l-0.076651,0.61321c-0.153303,-0.076651 -0.306605,-0.076651 -0.459908,-0.153303c-0.153303,-0.076651 -0.306605,-0.153303 -0.61321,-0.229954c-0.229944,-0.076651 -0.459898,-0.229954 -0.613201,-0.459908c-0.229954,-0.229954 -0.306605,-0.383247 -0.383257,-0.613201c-0.076651,-0.153303 -0.076651,-0.383257 0,-0.61321c0.076651,-0.229954 0.153303,-0.383257 0.383257,-0.613201c0.229954,-0.153303 0.536559,-0.229954 0.919806,-0.306605c0.383257,-0.076651 0.766513,-0.076651 1.226411,-0.076651c0.459908,0.076651 0.843164,0.076651 1.14976,0.153303c0.306605,0.076651 0.61321,0.153303 0.996467,0.229954c0.459898,0.153303 0.843155,0.229944 1.226411,0.383247c0.383247,0.153303 0.689852,0.306605 1.073109,0.536559c0.306605,0.229954 0.53655,0.383257 0.689852,0.613201c0.229954,0.153303 0.306605,0.383257 0.383257,0.61321c0,0.229954 0,0.459908 0,0.613201c-0.153303,0.306605 -0.306605,0.536559 -0.536559,0.61321c-0.306596,0.153303 -0.53655,0.229954 -0.843155,0.229954c-0.306605,0 -0.536559,0 -0.843155,-0.076651l-0.306605,-0.076651zm0.996457,3.909188l-0.153303,0.459908l-8.354925,-1.226411l0.229954,-0.61321l2.222869,0.306605l0.613201,-1.533016l-1.916263,-1.14976l0.229954,-0.536559l7.128514,4.292444zm-4.982296,-0.919806l3.372629,0.613201l-2.912721,-1.762961l-0.459908,1.14976zm2.606125,4.215783l0.996457,0.459908l-1.379714,2.606125l-0.919806,-0.459908l0.536559,-1.14976l-6.438662,-3.219326l0.229944,-0.536559l6.438662,3.295987l0.536559,-0.996467zm-8.891484,1.226411l0.306605,-0.459898l6.975211,4.292435l-0.306605,0.459908l-6.975211,-4.292444zm4.752343,7.665082c-0.153303,0.229944 -0.459898,0.383247 -0.919806,0.383247c-0.383257,0 -0.996457,-0.076651 -1.609668,-0.383247c-0.613201,-0.229954 -1.226411,-0.61321 -1.839612,-1.073118c-0.61321,-0.383247 -1.073118,-0.919806 -1.533016,-1.379714c-0.383257,-0.53655 -0.689862,-0.996457 -0.766513,-1.456356c-0.153303,-0.459908 -0.153303,-0.766513 0.076651,-0.996467c0.153303,-0.229954 0.459908,-0.383247 0.919816,-0.383247c0.459898,0 0.996457,0.153293 1.609658,0.383247c0.61321,0.229954 1.226411,0.61321 1.839622,1.073109c0.536559,0.383257 1.073109,0.919816 1.533016,1.379714c0.383247,0.536559 0.689852,1.073118 0.766503,1.456365c0.153303,0.459908 0.076651,0.766513 -0.076651,0.996467zm-0.843155,-0.61321c0.076651,-0.153303 0.076651,-0.383257 0,-0.689852c-0.076651,-0.306605 -0.306605,-0.689862 -0.61321,-1.073118c-0.306596,-0.383247 -0.689852,-0.689852 -1.14976,-1.073109c-0.459898,-0.306605 -0.843155,-0.53655 -1.303063,-0.766503c-0.459898,-0.153303 -0.843155,-0.306605 -1.14976,-0.306605c-0.306605,0 -0.53655,0.076651 -0.689852,0.229954c-0.153303,0.153303 -0.153303,0.383257 0,0.689852c0.076651,0.383257 0.306596,0.689862 0.613201,1.073109c0.306605,0.306605 0.689862,0.689862 1.14976,0.996467c0.383257,0.306596 0.843164,0.613201 1.303063,0.843155c0.459908,0.153303 0.843164,0.306605 1.14976,0.306605c0.306605,0 0.536559,-0.076651 0.689862,-0.229954zm-3.295987,2.452823l-4.522389,-4.215793l0.383257,-0.459898l6.055405,5.672149l-0.459908,0.383257l-5.672149,-2.682776l4.445737,4.06249l-0.383247,0.459908l-6.055415,-5.595507l0.383257,-0.383257l5.825451,2.759428zm-5.365543,0.076651c-0.153303,0.153303 -0.306605,0.306605 -0.459908,0.383257c-0.076651,-0.076651 -0.153303,-0.153303 -0.229954,-0.229954c-0.076651,-0.076651 -0.153303,-0.153303 -0.306605,-0.229954c-0.076651,-0.076651 -0.229944,-0.153303 -0.306596,-0.153303c-0.076651,-0.076651 -0.229954,-0.076651 -0.306605,-0.076651c-0.076651,0 -0.229954,0.076651 -0.306605,0.076651c-0.153303,0.076651 -0.153303,0.153303 -0.229954,0.229954c-0.076651,0 -0.153303,0.076651 -0.153303,0.153303c-0.076651,0.076651 -0.076651,0.153303 -0.076651,0.229954c0,0.153303 0,0.229954 0.076651,0.383247c0.076651,0.076651 0.153303,0.229954 0.229954,0.383257c0.153303,0.153303 0.229954,0.306605 0.306605,0.383257c0.153303,0.153303 0.306605,0.229954 0.383257,0.306605c0.153303,0.076651 0.306596,0.076651 0.53655,0.076651c0.229954,0 0.459908,0 0.689862,-0.076651c0.306596,-0.076651 0.459898,-0.076651 0.689852,-0.076651c0.153303,0 0.383257,0.076651 0.61321,0.153303c0.153303,0.076642 0.383247,0.229944 0.689852,0.383247c0.229954,0.229954 0.459908,0.459908 0.766513,0.843164c0.153293,0.229944 0.306596,0.459898 0.383247,0.613201c0.076651,0.153303 0.153303,0.306605 0.153303,0.459908c0.076651,0.153303 0.076651,0.306605 0,0.459898c0,0.153303 0,0.306605 -0.076651,0.383257c-0.076651,0.153303 -0.153303,0.229954 -0.229954,0.306605c-0.153303,0.153303 -0.383247,0.306605 -0.613201,0.306605c-0.153303,0 -0.383257,-0.076651 -0.61321,-0.076651c-0.153303,-0.076651 -0.383247,-0.153303 -0.53655,-0.306605c-0.229954,-0.076651 -0.383257,-0.229954 -0.459908,-0.306605c-0.076651,-0.076651 -0.153303,-0.153303 -0.229954,-0.229954c0.153303,-0.076651 0.229954,-0.229944 0.383257,-0.383247c0.076651,0.076651 0.153303,0.153303 0.229954,0.153303c0.076651,0.076642 0.153303,0.153293 0.306605,0.229944c0.076642,0.076651 0.229944,0.076651 0.383247,0.076651c0.076651,0.076651 0.229954,0 0.306605,0c0.076651,-0.076651 0.153303,-0.153303 0.229954,-0.153303c0.076651,-0.153293 0.153303,-0.306596 0.153303,-0.383247c0,-0.153303 0,-0.306605 0,-0.459908c-0.076651,-0.076651 -0.153303,-0.229954 -0.229954,-0.383257c-0.076651,-0.076651 -0.153303,-0.229944 -0.229954,-0.306596c-0.153303,-0.153303 -0.306605,-0.229954 -0.459908,-0.306605c-0.076651,-0.076651 -0.229944,-0.153303 -0.383247,-0.153303c-0.076651,-0.076651 -0.229954,-0.076651 -0.383257,-0.076651c-0.076651,0.076651 -0.306605,0.076651 -0.459908,0.076651c-0.229944,0.076651 -0.459898,0.153303 -0.689852,0.153303c-0.229954,0 -0.383257,0 -0.61321,-0.076651c-0.153293,-0.076651 -0.306596,-0.229954 -0.53655,-0.383257c-0.153303,-0.153303 -0.306605,-0.306605 -0.459908,-0.459898c-0.153303,-0.076651 -0.229954,-0.229954 -0.383257,-0.459908c-0.229944,-0.306605 -0.383247,-0.536559 -0.53655,-0.766503c-0.076651,-0.229954 -0.076651,-0.459908 -0.076651,-0.61321c-0.076651,-0.229954 0,-0.383257 0.076651,-0.536559c0.076651,-0.153293 0.153303,-0.306596 0.306605,-0.383247c0.153303,-0.153303 0.306596,-0.229954 0.459898,-0.306605c0.229954,0 0.383257,0 0.536559,0c0.229954,0.076651 0.383257,0.153303 0.53655,0.229954c0.153303,0.076651 0.383257,0.229954 0.536559,0.306605c0.153303,0.153293 0.229954,0.229944 0.383257,0.383247c0.076651,0.076651 0.153303,0.153303 0.229954,0.229954zm-28.973982,-69.062317c21.3089,0 38.785272,17.399721 38.785272,38.785272c0,21.308909 -17.476373,38.785272 -38.785272,38.785272c-21.38556,0 -38.785272,-17.476363 -38.785272,-38.785272c0,-21.385551 17.399712,-38.785272 38.785272,-38.785272zm0,-0.383247c21.538853,0 39.168529,17.553014 39.168529,39.168519c0,21.538863 -17.629675,39.168529 -39.168529,39.168529c-21.615505,0 -39.168529,-17.629666 -39.168529,-39.168529c0,-21.615505 17.553024,-39.168519 39.168529,-39.168519zm0,-10.424501c27.287663,0 49.516378,22.305367 49.516378,49.59302c0,27.287663 -22.228715,49.516378 -49.516378,49.516378c-27.287663,0 -49.593029,-22.228715 -49.593029,-49.516378c0,-27.287653 22.305367,-49.59302 49.593029,-49.59302zm0,0.689852c26.904406,0 48.903168,21.92211 48.903168,48.903168c0,26.904416 -21.998761,48.903177 -48.903168,48.903177c-26.981058,0 -48.903168,-21.998761 -48.903168,-48.903177c0,-26.981058 21.92211,-48.903168 48.903168,-48.903168zm-22.458669,85.848828c0.229954,0.153303 0.459908,0.306605 0.689862,0.383257c0.306605,0.153293 0.613201,0.306596 0.919806,0.459898c0.229954,-0.53655 0.459908,-0.996457 0.689862,-1.533016c0.076642,-0.153293 0.153293,-0.383247 0.229944,-0.689852c0.229954,0.153303 0.459908,0.229954 0.61321,0.306605c-0.153303,0.229954 -0.306605,0.459898 -0.383257,0.613201c-0.383257,0.919816 -0.766503,1.76297 -1.14976,2.606125c-0.459908,0.843164 -0.843155,1.686319 -1.226411,2.529474c-0.153303,0.229954 -0.229954,0.536559 -0.306605,0.843164c-0.229954,-0.076651 -0.383247,-0.153303 -0.613201,-0.229954c0.153303,-0.306605 0.306605,-0.689862 0.459898,-1.073109c-0.383247,-0.076651 -0.766503,-0.076651 -1.073109,-0.076651c-0.383247,-0.076651 -0.613201,-0.076651 -0.843155,0c0.076651,-0.306605 0.076651,-0.61321 0.076651,-0.919816c0.229954,0.076651 0.613201,0.153303 1.073109,0.229954c0.459908,0.153303 0.766503,0.153303 1.073109,0.229954c0.153303,-0.383257 0.383257,-0.766503 0.61321,-1.14976c0.153303,-0.383257 0.306596,-0.766503 0.53655,-1.14976c-0.306605,-0.153303 -0.613201,-0.306605 -0.919806,-0.459908c-0.229954,-0.076651 -0.459908,-0.153303 -0.766503,-0.306605c0.076651,-0.153293 0.153293,-0.383247 0.306596,-0.613201zm4.06249,-0.61321c0.153303,0.076651 0.383257,0.153303 0.536559,0.306605c-0.076651,0.153303 -0.229954,0.383257 -0.306605,0.536559c-0.306605,0.689852 -0.61321,1.379714 -0.996457,1.992915c0.306605,0 0.613201,0 0.996457,-0.076651c0.306605,-0.076651 0.689852,-0.153303 1.073109,-0.229954c0,0.306605 0.076651,0.536559 0.153303,0.919816c-0.229954,-0.076651 -0.613201,-0.153303 -1.14976,-0.076651c-0.536559,0 -0.919806,0.076651 -1.303063,0.076651c-0.229954,0.383247 -0.383257,0.766503 -0.61321,1.14976c-0.153293,0.383257 -0.306596,0.766503 -0.459898,1.14976c-0.153303,0.306605 -0.076651,0.53655 0.153303,0.689852c0.229944,0.076651 0.459898,0.153303 0.689852,0.229954c0.153303,0.153303 0.306605,0.153303 0.459908,0.076651c0.076651,-0.153303 0.229954,-0.306605 0.459898,-0.689852c0.076651,0.229944 0.229954,0.459898 0.459908,0.613201c-0.306605,0.383257 -0.613201,0.61321 -0.766503,0.689862c-0.153303,0.153303 -0.383257,0.153303 -0.536559,0.076651c-0.459908,-0.229954 -0.843155,-0.383257 -1.226411,-0.61321c-0.459908,-0.153303 -0.536559,-0.536559 -0.306605,-1.073109c0.306605,-0.843155 0.766513,-1.686319 1.226411,-2.606125c0.383257,-0.843155 0.766513,-1.686319 1.14976,-2.529474c0.076651,-0.153303 0.229954,-0.383257 0.306605,-0.61321zm6.285359,7.895027c0.153303,-0.153303 0.459908,-0.153303 0.61321,-0.306605c0.153303,0.306605 0.306605,0.383257 0.53655,0.766513c0.229954,0.306605 0.459908,0.613201 0.61321,0.919806c-0.153303,0.076651 -0.383257,0.229954 -0.61321,0.459908c-0.229944,-0.459908 -0.613201,-1.073109 -1.14976,-1.839622zm-2.452823,-1.226411c0.153303,0.153303 0.306605,0.383257 0.459908,0.61321c-0.383257,0.153303 -1.073109,0.53655 -2.069576,1.14976c-0.076642,-0.153303 -0.229944,-0.383257 -0.383247,-0.61321c0.996457,-0.459898 1.68631,-0.843155 1.992915,-1.14976zm0.153303,-2.91273l4.445747,1.226421c-0.383257,0.766503 -0.536559,1.379704 -0.689862,2.29952l-1.916263,-0.536559l-0.459908,1.992924c-0.076651,0.383247 -0.153303,0.613201 -0.383257,0.613201c-0.153303,0.076651 -0.53655,0.076651 -0.996457,0.076651c0.076651,-0.306605 0,-0.613201 -0.076651,-0.919806c0.306605,0.229954 0.536559,0.229954 0.689862,0.229954c0.153303,0 0.229944,-0.153303 0.306596,-0.459908l0.383257,-1.686319l-1.916263,-0.459898c0.076651,-0.306605 0.229944,-0.689862 0.306596,-1.14976c0.076651,-0.383257 0.229954,-0.919816 0.306605,-1.226421zm0.383257,0.843164l-0.306605,1.14976l3.295977,0.843155l0.306605,-1.226411l-3.295977,-0.766503zm1.839612,-2.606125c0.229954,0 0.459908,0.076651 0.689862,0.076651c0,0.076651 0,0.153303 0,0.383247c0,0.153303 0,0.459908 0,0.766513c0.459898,0.076651 1.073109,0.229954 1.533016,0.383257c0.459898,0.076651 0.843155,0.153293 1.14976,0.229944c0,0.229954 -0.076651,0.459908 -0.153303,0.61321c-1.992924,-0.61321 -4.139142,-1.14976 -6.285359,-1.609668c0.076651,-0.229954 0.076651,-0.459898 0.153303,-0.689852c0.383247,0.153303 0.843155,0.306596 1.226411,0.383247c0.306596,0.076651 0.613201,0.229954 0.919806,0.306605c0.306605,0.076651 0.459908,0.076651 0.766503,0.153303c0,-0.076651 0,-0.229954 0,-0.383257c0,-0.153303 0,-0.383247 0,-0.613201zm7.971678,9.198089c0.076651,-0.383257 0.076651,-0.689862 0.153303,-0.919816c0,-0.229944 0,-0.53655 0.076651,-0.766503l0.229954,-3.755885c0.076651,-0.383257 0.076651,-0.689862 0.076651,-0.919806l0,-0.766513c0.306605,0 0.53655,0.076651 0.766503,0.076651l0.919816,0.076651c0.153293,0 0.459898,0 0.766503,0c-0.076651,0.229954 -0.153303,0.383257 -0.229954,0.536559c-0.076651,0.229954 -0.076651,0.306596 -0.153303,0.383247l-0.613201,1.686319c0.229954,0.383257 0.459898,0.689862 0.53655,0.919806c0.076651,0.153303 0.076651,0.383257 0.153303,0.536559c0,0.153303 0,0.383257 0,0.613201c0,0.306605 -0.076651,0.536559 -0.153303,0.689862c-0.153303,0.229954 -0.229954,0.383257 -0.459898,0.459908c-0.153303,0.076651 -0.459908,0.153293 -0.843164,0.229944c0,-0.076651 0,-0.153293 0,-0.229944c0,-0.076651 0,-0.153303 -0.076651,-0.229954c0,-0.076651 -0.076651,-0.306605 -0.229944,-0.536559c0.306596,0.076651 0.459898,0.076651 0.459898,0.076651c0.383257,0.076651 0.61321,-0.153303 0.61321,-0.53655c0,-0.076651 0,-0.153303 0,-0.229954c0,-0.153303 0,-0.229954 0,-0.306605c0,-0.153303 -0.076651,-0.229954 -0.076651,-0.383257c-0.076651,-0.153303 -0.153303,-0.306605 -0.153303,-0.383247c-0.076651,-0.076651 -0.229954,-0.306605 -0.383257,-0.61321c0.229954,-0.61321 0.306605,-0.919806 0.306605,-0.919806l0.383257,-1.14976l-0.919816,-0.076651l-0.306596,4.752343c-0.076651,0.229954 -0.076651,0.536559 -0.076651,0.919806l0,0.766513c-0.229954,0 -0.459908,0 -0.766513,0zm-1.609668,-4.445747l0.766513,0.076651l0.153303,-1.533016l-0.843164,-0.076651l-0.076651,1.533016zm-0.229944,2.222869l0.843155,0.076651l0.153303,-1.609658l-0.843155,-0.076651l-0.153303,1.609658zm-1.226411,-2.29952l0.843155,0.076651l0.153303,-1.533016l-0.843164,-0.076651l-0.153293,1.533016zm-0.153303,2.222869l0.843155,0l0.076651,-1.533007l-0.843155,-0.076651l-0.076651,1.609658zm-0.229954,-4.445737c0.229954,0.076651 0.53655,0.076651 0.766503,0.076651l0.689862,0.076651l0,-0.536559c0.076651,-0.229954 0.076651,-0.459898 0.076651,-0.53655l0,-0.536559c0.229954,0.076651 0.459898,0.076651 0.613201,0.076651c0,0.229954 0,0.459908 -0.076651,0.61321c0,0.229944 0,0.383247 0,0.459898l-0.076651,0.536559l0.689862,0c0.229954,0.076651 0.459898,0.076651 0.766503,0.076651c-0.076651,0.306596 -0.076651,0.53655 -0.153303,0.766503c0,0.153303 0,0.383257 0,0.61321l-0.306596,2.989372c0,0.383257 -0.076651,0.536559 -0.076651,0.689862l0,0.613201c-0.153303,0 -0.306605,-0.076651 -0.306605,-0.076651c-0.076651,0 -0.153303,0 -0.306605,0c0,-0.153303 0.076651,-0.383247 0.076651,-0.459898l0,-0.229954l-2.222869,-0.229954l-0.076651,0.459908c0,0 0,0.153303 0,0.306596l0,0.229954c-0.229954,-0.076651 -0.383257,-0.076651 -0.61321,-0.076651c0,-0.306596 0.076651,-0.53655 0.076651,-0.766503c0,-0.153303 0.076651,-0.383257 0.076651,-0.689862l0.306605,-3.066023c0,-0.153303 0,-0.306605 0,-0.689862l0.076651,-0.689852zm8.048329,0.306605c0.306596,0 0.53655,0 0.766503,0l1.456365,-0.076651l0,-0.306605c0,-0.076651 0,-0.229954 0,-0.383257l-0.076651,-0.613201c0.229954,0 0.383257,0 0.383257,0c0.076651,0 0.153303,0 0.383247,-0.076651c0,0.229954 0,0.459898 0,0.53655c0,0.153303 0,0.306605 0,0.536559l0,0.229954l1.609668,-0.076651c0.153303,0 0.383257,-0.076651 0.689862,-0.076651c0,0.153303 0,0.306605 0,0.383257c0,0.153303 0,0.229944 0,0.383247l0.229944,2.529474c0,0.229954 0,0.383257 0,0.459908l0.076651,0.459908c-0.306596,0 -0.53655,0 -0.689852,0.076651c0,-0.076651 0,-0.076651 0,-0.153303c0,-0.076651 0,-0.076651 0,-0.076651l0,-0.229954l-1.609668,0.153303l0.076651,1.073109c0,0.229954 0,0.383257 0.076651,0.459908c0,0 0.076651,0.076651 0.153303,0.153303c0.076651,0 0.459908,0 1.226411,-0.076651c0.306605,0 0.459908,0 0.61321,-0.076651c0.076642,-0.076651 0.153293,-0.076651 0.229944,-0.229954c0.076651,-0.076651 0.076651,-0.153303 0.153303,-0.306605c0,-0.076651 0,-0.306605 0,-0.613201c0.153303,0.153293 0.229954,0.229944 0.306605,0.306596c0.153303,0.153303 0.306605,0.229954 0.61321,0.306605c-0.076651,0.076651 -0.153303,0.229954 -0.153303,0.306605c-0.076651,0.153303 -0.153303,0.306605 -0.229954,0.459898c-0.076651,0.153303 -0.153303,0.229954 -0.306605,0.306605c-0.076651,0.076651 -0.229954,0.153303 -0.459908,0.153303c-0.229944,0.076651 -0.53655,0.076651 -0.996457,0.076651c-0.766503,0.076651 -1.226411,0.076651 -1.456365,0c-0.229954,-0.076651 -0.306596,-0.229954 -0.383247,-0.306605c0,-0.153303 0,-0.383247 -0.076651,-0.613201l-0.076651,-1.379714l-1.533016,0.153303l0,0.229954l0,0.153293l0,0.153303c-0.153303,0 -0.229954,0 -0.306605,0l-0.153303,0l-0.229954,0c0,-0.229954 0,-0.383247 0,-0.53655c0,-0.153303 0,-0.383257 0,-0.536559l-0.229944,-2.452823c0,-0.229954 0,-0.306605 0,-0.383257l-0.076651,-0.459898zm0.919806,3.219326l1.533016,-0.153303l0,-0.996457l-1.609668,0.076651l0.076651,1.073109zm-0.076651,-1.686319l1.533016,-0.076642l-0.076651,-0.919816l-1.533016,0.076651l0.076651,0.919806zm2.29952,1.533016l1.609668,-0.153303l-0.076651,-0.996457l-1.609668,0.153303l0.076651,0.996457zm-0.076651,-1.609658l1.609668,-0.153303l-0.076651,-0.919816l-1.609668,0.076651l0.076651,0.996467zm4.982296,3.602583l0.229954,-0.153303c0.459908,-0.306605 0.919816,-0.61321 1.226411,-1.073109c0.383257,-0.459908 0.61321,-0.919816 0.689862,-1.303063c0.076651,-0.383257 0.076651,-0.766513 0.076651,-0.996467c0,-0.306596 0,-0.613201 0,-0.996457l-1.609668,0.383257c-0.076651,0 -0.383257,0.076651 -0.996457,0.306605c0,-0.153303 -0.076651,-0.153303 -0.076651,-0.229954c0,-0.076651 0,-0.153303 0,-0.153303c0,-0.076651 0,-0.153303 0,-0.153303l-0.153303,-0.306605c0.613201,-0.076651 0.919806,-0.153293 1.073109,-0.153293l1.609668,-0.383257c0,-0.076651 0,-0.229954 0,-0.306605c-0.076651,-0.153303 -0.076651,-0.306605 -0.153303,-0.613201l-0.076651,-0.306605c0,-0.076651 0,-0.153303 0,-0.229954l-0.229954,-0.689862c0.229954,-0.076642 0.383257,-0.076642 0.459908,-0.076642c0.076651,0 0.153303,-0.076651 0.383257,-0.153303l0.076642,0.843155c0,0.153303 0.076651,0.306605 0.076651,0.536559c0.076651,0.229944 0.076651,0.383247 0.153303,0.459898l0.076651,0.383257l1.686319,-0.383257c0.076651,0 0.383257,-0.076651 0.996457,-0.229954c0,0.076651 0,0.229954 0.076651,0.229954c0,0.076651 0,0.153303 0,0.153303c0,0.076651 0,0.229954 0.076651,0.383257c-0.459908,0.076651 -0.766503,0.153303 -0.919806,0.153303l-1.686319,0.383247c0.076651,0.076651 0.153303,0.229954 0.229954,0.459908c0.076651,0.153303 0.229954,0.459908 0.613201,0.996457c0.306605,0.459908 0.61321,0.766513 0.919816,0.919816c0.306596,0.153293 0.613201,0.306596 0.919806,0.383247c0.306605,0.076651 0.61321,0.153303 0.843155,0.153303l0.229954,0c-0.306605,0.306605 -0.459898,0.536559 -0.53655,0.689862l-0.076651,0.383247l-0.229954,-0.076651c0,-0.076651 -0.229954,-0.153303 -0.689862,-0.383247c-0.459898,-0.153303 -0.919806,-0.459908 -1.303063,-0.843164c-0.383247,-0.383247 -0.766503,-0.919806 -1.073109,-1.533016c0,0.153303 0,0.306605 0,0.459908c0,0.153303 0,0.229954 0,0.306605c0,0.153303 -0.076651,0.229954 -0.076651,0.459908c-0.076651,0.229944 -0.153303,0.459898 -0.229954,0.689852c-0.076651,0.229954 -0.229944,0.459908 -0.383247,0.689852c-0.153303,0.306605 -0.306605,0.459908 -0.459908,0.61321c-0.076651,0.076651 -0.383257,0.383257 -0.766503,0.766503l-0.153303,0.076651c0,-0.076651 -0.076651,-0.153303 -0.229954,-0.229944c-0.076651,-0.153303 -0.306605,-0.229954 -0.61321,-0.306605zm7.971678,-3.066033c-0.076651,-0.153303 -0.076651,-0.306605 -0.153303,-0.383257c0,-0.076651 0,-0.076651 0,-0.076651l-0.153293,-0.306596c0.383247,-0.076651 0.689852,-0.153303 0.919806,-0.229954l1.992915,-0.766503l0,-0.153303l0,0l-0.076651,-0.153303l-0.153303,-0.229954l0.153303,-0.153303c0.153303,-0.076651 0.383257,-0.306605 0.61321,-0.689852l-1.686319,0.689852c-0.076651,0 -0.459898,0.153303 -0.996457,0.383257c0,-0.076651 0,-0.153303 0,-0.229954c0,0 0,-0.076651 -0.076651,-0.153303l0,-0.076651l-0.153303,-0.229954c0.536559,-0.153303 0.843155,-0.229954 0.996457,-0.306596l2.069576,-0.766513c0.306596,-0.076651 0.53655,-0.229954 0.843155,-0.383257c0.076651,0.153303 0.076651,0.229954 0.076651,0.306605l0.076651,0.153303c0,0.076651 0.076651,0.076651 0.076651,0.076651l0.076651,0.229954l-0.229954,0.153303c-0.229954,0.153303 -0.536559,0.459898 -0.919806,0.919806l-0.153303,0.153303l0.076651,0.229954l1.68631,-0.536559c0.229954,-0.153303 0.536559,-0.306605 0.996467,-0.459908c0,0.153303 0.076651,0.229954 0.076651,0.229954c0,0.076651 0,0.153303 0,0.229954c0.076651,0 0.076651,0.153303 0.229944,0.306605c-0.689852,0.153303 -1.073109,0.306605 -1.073109,0.306605l-1.68631,0.613201l0.53655,1.303063c0,0.153303 0.076651,0.229954 0,0.383257c0,0.153303 -0.306605,0.383257 -0.919806,0.689852c-0.076651,0 -0.076651,-0.076651 -0.076651,-0.153303c-0.076651,-0.076651 -0.076651,-0.153293 -0.153303,-0.229944c-0.076651,-0.076651 -0.153303,-0.153303 -0.383257,-0.306605l0.153303,-0.076651c0.076651,0 0.229954,0 0.306605,-0.076651c0.153303,0 0.306605,-0.076651 0.306605,-0.153303c0,0 0,-0.076651 0,-0.153303c0,-0.076651 -0.076651,-0.229954 -0.153303,-0.459898l-0.153303,-0.536559l-1.992915,0.689852c-0.076651,0 -0.383257,0.153303 -0.919816,0.383257zm-0.689852,-2.146217c-0.076651,-0.229954 -0.153303,-0.383257 -0.153303,-0.536559l-0.229954,-0.53655c-0.076651,-0.153303 -0.153303,-0.306605 -0.229954,-0.536559c0.383257,-0.076651 0.61321,-0.153303 0.766513,-0.229954l3.066023,-1.14976c0.153303,-0.53655 0.153303,-1.073109 0.153303,-1.76297l0,-0.306596c0.229954,0.076651 0.459908,0.153303 0.766513,0.153303l-0.076651,0.229944l-0.076651,0.383257l-0.076651,0.536559l-0.076651,0.613201l0.843155,-0.383247c0.153303,0 0.383257,-0.153303 0.689862,-0.306605c0.076651,0.153303 0.076651,0.306605 0.153303,0.383247c0,0.076651 0,0.153303 0,0.229954l0.229944,0.536559c0,0 0.076651,0.076651 0.076651,0.229954l0.153303,0.229954c-0.229954,0 -0.459898,0.076642 -0.689852,0.229944c0,-0.153303 -0.076651,-0.229944 -0.076651,-0.306596c0,0 0,-0.076651 -0.076651,-0.153303l-0.153303,-0.459908l-4.752343,1.76297l0.153303,0.459898c0.076642,0.076651 0.076642,0.153303 0.076642,0.229954l0.153303,0.229954c-0.076651,0.076651 -0.153303,0.076651 -0.229944,0.076651c0,0 -0.153303,0.076651 -0.383257,0.153303zm-0.306605,-2.989382c0.153303,-0.153303 0.306605,-0.306605 0.383257,-0.53655l1.14976,0.843155c-0.153303,0.076651 -0.229954,0.153303 -0.306605,0.229954l-0.229954,0.306596l-0.153303,-0.229944c0,-0.076651 -0.076651,-0.076651 -0.229944,-0.229954c-0.153303,-0.076651 -0.306605,-0.153303 -0.383257,-0.229954l-0.229954,-0.153303zm2.069566,-1.456365l0.919816,1.073109c-0.229954,0.153303 -0.459908,0.229954 -0.61321,0.383257l-0.153303,-0.153303c-0.076651,-0.153303 -0.153303,-0.306605 -0.229944,-0.383247l-0.383257,-0.459908l-0.076651,-0.076651c0.229954,-0.076651 0.383257,-0.229954 0.53655,-0.383257zm-23.455117,-77.723847c0.076651,0.61321 0.459898,1.609668 1.379714,1.073109c0.076642,0 0.153293,-0.076642 0.229944,-0.153293c0.076651,-0.076651 0.076651,-0.153303 0.076651,-0.306605c0.153303,-1.76297 -0.306596,-1.609668 -1.226411,-2.146217c-0.229954,-0.153303 -0.459898,-0.306605 -0.613201,-0.383257c-0.153303,-0.153303 -0.306605,-0.306605 -0.383257,-0.536559c-0.536559,-0.996457 -0.766503,-3.372629 0.766503,-3.679234c0.996467,0 1.379714,1.226411 1.533016,1.992924l-0.459898,0c-0.153303,-0.536559 -0.689862,-1.379714 -1.379714,-0.843164c-0.459908,0.306605 -0.383257,1.14976 -0.229954,1.609668c0.076651,0.153303 0.153303,0.306605 0.229954,0.383257c0.076651,0.076651 0.229944,0.153303 0.306596,0.229944c0.076651,0.076651 0.306605,0.229954 0.459908,0.306605c0.919806,0.536559 1.303063,0.766513 1.456365,1.76297c0.076651,0.153303 0.153303,0.53655 0.153303,0.766503c0.076651,0.383257 0,0.766513 0,0.996457c-0.076651,0.229954 -0.153303,0.459908 -0.306605,0.689862c-0.076651,0.153303 -0.229954,0.306605 -0.383257,0.383257c-0.153303,0.076651 -0.306596,0.076651 -0.459898,0.076651c-0.996467,0.076651 -1.533016,-1.303063 -1.686319,-2.222878l0.536559,0zm8.201622,-0.383247c-0.076651,0.613201 0.153303,1.68631 1.14976,1.379714c0.076651,-0.076651 0.153303,-0.076651 0.229954,-0.153303c0,-0.076651 0.076651,-0.153303 0.153303,-0.306605c0.459908,-1.686319 -0.076651,-1.686319 -0.843155,-2.29952c-0.229954,-0.229954 -0.383257,-0.383257 -0.536559,-0.536559c-0.076651,-0.153303 -0.229954,-0.306605 -0.306605,-0.53655c-0.306596,-1.14977 -0.076651,-3.525941 1.533016,-3.44929c0.996457,0.153303 1.073109,1.379714 1.14976,2.222869l-0.53655,-0.076642c0,-0.61321 -0.383257,-1.533016 -1.14976,-1.14977c-0.536559,0.229954 -0.61321,1.073118 -0.536559,1.533016c0.076651,0.153303 0.076651,0.306605 0.153303,0.459908c0.076651,0.076651 0.153303,0.153303 0.229954,0.306605c0.076651,0.076651 0.229954,0.229944 0.383247,0.383247c0.843164,0.61321 1.14977,0.919816 1.14977,1.916273c0,0.229954 0,0.613201 0,0.843155c-0.076651,0.383257 -0.153303,0.689862 -0.229954,0.919806c-0.153303,0.306605 -0.229954,0.459908 -0.383257,0.61321c-0.153303,0.153303 -0.306605,0.306605 -0.459908,0.306605c-0.153303,0.076651 -0.306596,0.076651 -0.53655,0.076651c-0.996457,-0.153303 -1.226411,-1.609668 -1.14976,-2.529474l0.53655,0.076651zm-29.663834,2.682776c0.229954,-0.153303 0.536559,-0.153303 0.996457,0c0.229954,0.076642 0.459908,0.153293 0.689862,0.306596c0.229954,0.153303 0.459908,0.383257 0.689852,0.61321c0.306605,0.229954 0.536559,0.459898 0.766513,0.689852c0.229954,0.306605 0.459898,0.61321 0.689852,0.843164c0.229954,0.306596 0.383257,0.613201 0.536559,0.919806c0.229954,0.306605 0.383257,0.613201 0.459898,0.919806c0.229954,0.61321 0.306605,1.14976 0.306605,1.609668c0,0.383257 -0.153303,0.689852 -0.383247,0.843155c-0.306605,0.229954 -0.61321,0.229954 -0.996467,0.076651c-0.459898,-0.153303 -0.919806,-0.459898 -1.379714,-0.919806c-0.53655,-0.383257 -0.996457,-0.919806 -1.379714,-1.533016c-0.229944,-0.306605 -0.459898,-0.613201 -0.613201,-0.919806c-0.153303,-0.306605 -0.306605,-0.61321 -0.459908,-0.919806c-0.229954,-0.689862 -0.306605,-1.226411 -0.306605,-1.609668c0.076651,-0.459908 0.153303,-0.766513 0.383257,-0.919806zm0.61321,0.919806c-0.153303,0.076651 -0.229954,0.306605 -0.229954,0.613201c0,0.306605 0.076651,0.689862 0.306605,1.14976c0.153303,0.459908 0.459898,0.919816 0.766503,1.379714c0.306605,0.459908 0.61321,0.843164 0.996457,1.14977c0.306605,0.306596 0.689862,0.53655 0.996467,0.689852c0.306596,0.076651 0.53655,0.076651 0.689852,0c0.153303,-0.076651 0.229954,-0.306605 0.229954,-0.61321c0,-0.383247 -0.076651,-0.689852 -0.229954,-1.14976c-0.153303,-0.459898 -0.459908,-0.919806 -0.766503,-1.303063c-0.306605,-0.459898 -0.689862,-0.843155 -1.073118,-1.226411c-0.306596,-0.306596 -0.689852,-0.613201 -0.996457,-0.689852c-0.306605,-0.076651 -0.53655,-0.076651 -0.689852,0zm5.135599,0.766503l1.839612,3.295987l-0.459898,0.229954l-4.139142,-7.205175l1.992915,-1.073109l0.536559,0.996457l-1.456365,0.843155l1.14976,1.992924l1.379714,-0.766503l0.536559,0.919806l-1.379714,0.766503z" id="path115" fill-rule="evenodd" fill="#013a89"/>
  <text stroke="null" transform="matrix(1.084897652342562,0,0,1,-17.950849188303895,0) " font-weight="bold" xml:space="preserve" text-anchor="start" font-family="'Times New Roman', Times, serif" font-size="11" id="svg_1" y="97.877004" x="127.587018" stroke-opacity="null" stroke-width="0" fill="#013a89">Beijing University of Posts and Telecommunications</text>
 </g>
</svg>